<svg version="1.1" id="Layer_1" xmlns="http://www.w3.org/2000/svg" xmlns:xlink="http://www.w3.org/1999/xlink" x="0px" y="0px"
	 width="100%" viewBox="0 0 1024 1008" enable-background="new 0 0 1024 1008" xml:space="preserve">
<path fill="#000000" opacity="1.000000" stroke="none" 
	d="
M341.354492,909.711060 
	C274.060913,882.270020 216.985016,841.176086 169.444260,786.796997 
	C130.366364,742.098145 101.247932,691.584412 82.012848,635.441772 
	C71.247620,604.020630 64.210526,571.748291 60.509476,538.693481 
	C56.973057,507.109009 56.597919,475.502960 59.940674,443.984344 
	C69.706818,351.899963 103.911926,269.938782 163.235977,198.658997 
	C203.658569,150.089951 252.231674,111.705986 308.600586,83.236603 
	C347.796448,63.440540 389.130493,49.838627 432.341034,42.155357 
	C454.628052,38.192505 477.114655,36.184601 499.809448,35.501694 
	C550.397644,33.979443 599.758667,40.822289 647.947021,55.868347 
	C705.408508,73.809799 757.264160,102.245369 803.429688,140.932434 
	C843.253662,174.305237 876.586426,213.247406 903.113892,257.940094 
	C927.433777,298.913544 944.731079,342.677734 955.371521,389.150574 
	C964.651245,429.680298 968.102783,470.727966 965.970947,512.122864 
	C962.961243,570.565247 949.204102,626.490662 924.489258,679.676392 
	C898.866516,734.815796 863.512451,782.838196 818.763428,823.820190 
	C764.611572,873.413452 701.981323,907.933411 631.046509,927.201965 
	C598.648193,936.002563 565.678711,940.941284 532.123413,942.493530 
	C470.227417,945.356750 410.403168,935.598022 352.421173,914.004395 
	C348.832703,912.667969 345.272156,911.256592 341.354492,909.711060 
M478.026642,48.594353 
	C470.598022,49.455219 463.170746,50.327770 455.740570,51.174946 
	C421.482086,55.081024 388.340942,63.650471 356.162323,75.812645 
	C307.711487,94.125038 263.833099,120.276268 224.495636,154.006561 
	C183.329269,189.305084 149.674576,230.721725 123.680367,278.298187 
	C94.139587,332.365753 76.725670,390.195251 71.503189,451.544678 
	C68.614830,485.474640 69.431282,519.435730 74.518562,553.165039 
	C80.126091,590.343567 90.084396,626.316345 104.847305,660.969604 
	C130.461868,721.095215 167.381851,773.241699 215.995789,816.773132 
	C290.265625,883.278076 377.307190,921.021973 476.724457,929.526001 
	C511.340088,932.487000 545.917480,930.995728 580.284973,925.667297 
	C626.735901,918.465271 670.926086,904.166382 712.730652,882.731079 
	C759.120117,858.944885 800.211060,828.034424 835.738831,789.816467 
	C877.947754,744.411499 909.461121,692.523376 929.933777,633.992981 
	C942.411011,598.321045 949.859009,561.629700 952.995789,523.927429 
	C955.647217,492.058258 954.580750,460.351379 950.370300,428.793457 
	C946.067871,396.546509 938.082520,365.104919 926.491394,334.633514 
	C899.335327,263.243835 856.732056,202.727768 798.701050,153.091187 
	C757.226440,117.615967 710.650696,90.882362 659.289551,72.539581 
	C621.940063,59.200821 583.351685,51.507652 543.853149,48.398056 
	C522.231628,46.695858 500.584686,47.114861 478.026642,48.594353 
z"/>
<path fill="#000000" opacity="1.000000" stroke="none" 
	d="
M930.332153,408.816010 
	C933.923767,429.246490 936.383972,449.343536 937.437256,469.676453 
	C938.726624,494.566284 937.351685,519.259644 934.347900,543.924744 
	C931.119934,570.429993 925.140625,596.336182 916.791382,621.668396 
	C900.776062,670.260071 876.817627,714.613647 844.730042,754.474792 
	C796.440125,814.463379 736.393677,858.478455 664.548340,886.314514 
	C627.189209,900.789062 588.480652,909.602844 548.610352,913.002258 
	C484.564178,918.462891 422.384827,909.843140 362.184784,887.207825 
	C301.092468,864.237183 248.136383,828.903687 203.269363,781.628967 
	C154.653320,730.404114 120.796616,670.656494 101.734612,602.597778 
	C92.850998,570.879883 88.075264,538.537842 86.595055,505.641296 
	C84.830765,466.431335 89.067688,427.855469 98.133347,389.756287 
	C114.302818,321.802673 145.789108,261.664154 191.672897,209.189514 
	C234.682007,160.002487 286.411835,122.599937 346.657623,97.067841 
	C379.646515,83.087189 413.873718,73.393188 449.257202,68.181755 
	C483.122284,63.193958 517.153015,62.180157 551.349731,65.449249 
	C584.513611,68.619606 616.892639,75.235771 648.387207,85.873276 
	C691.322388,100.374954 731.008484,121.222206 767.254456,148.521835 
	C824.829224,191.885910 868.815247,246.284561 899.210754,311.585999 
	C913.607361,342.515747 923.739685,374.897858 930.332153,408.816010 
M212.537109,195.036865 
	C199.130722,208.533936 186.703522,222.888763 175.385468,238.170105 
	C145.160034,278.979675 122.589912,323.599518 108.362839,372.441589 
	C101.030815,397.612732 95.648529,423.212952 93.607368,449.253082 
	C90.990746,482.634521 91.189819,516.054138 96.154968,549.390320 
	C102.412025,591.400452 114.377380,631.595581 132.760117,669.802673 
	C158.155701,722.585571 192.958664,768.300171 237.392136,806.573486 
	C298.769897,859.441895 369.592010,892.088318 449.553528,904.474243 
	C483.723633,909.767212 518.164612,910.203796 552.677734,907.028931 
	C592.275330,903.386292 630.537659,894.292786 667.312744,879.392944 
	C749.873779,845.942505 815.796936,791.894104 864.718750,717.461609 
	C890.536987,678.180176 908.907654,635.548706 920.265747,589.821411 
	C927.200439,561.902710 931.054260,533.597351 932.427490,504.994812 
	C933.715088,478.175049 931.751343,451.411224 927.663330,424.846954 
	C921.570190,385.254364 909.977234,347.311615 892.806152,311.137665 
	C867.982605,258.842407 834.009094,213.366699 790.532227,175.051025 
	C732.856506,124.222229 666.399109,91.322952 590.843323,76.780281 
	C546.962219,68.334229 502.844269,66.999611 458.605530,72.583389 
	C432.323853,75.900642 406.526031,81.794853 381.302734,90.171082 
	C316.874054,111.566757 260.838043,146.386612 212.537109,195.036865 
z"/>
<path fill="#000000" opacity="1.000000" stroke="none" 
	d="
M458.240051,459.772949 
	C476.861755,479.299286 495.239685,498.567413 513.827576,518.055664 
	C515.597229,516.062744 515.053162,514.008545 515.054382,512.166992 
	C515.069458,489.343109 515.026672,466.519257 514.992126,443.695374 
	C514.982727,437.475128 514.863281,437.368805 508.506012,437.377502 
	C500.113068,437.389008 497.350342,433.501129 499.846527,425.381287 
	C500.487122,423.297516 502.013245,422.999939 503.708435,422.997070 
	C516.369629,422.975739 529.030823,423.009216 541.692017,423.014832 
	C544.105103,423.015900 545.422852,424.031555 545.376770,426.601471 
	C545.317505,429.902191 545.362305,433.204773 545.362305,436.733612 
	C541.811035,437.853882 538.468811,437.385468 535.230042,437.288727 
	C531.500977,437.177307 530.293884,438.627441 530.373962,442.303680 
	C530.674561,456.112793 530.865540,469.927429 530.845825,483.739624 
	C530.817627,503.554993 530.610779,523.370544 530.378113,543.184814 
	C530.332764,547.046143 531.805969,551.033936 529.540344,555.959412 
	C497.210144,522.194519 465.417480,488.990997 433.501312,455.658478 
	C431.828552,457.752136 432.349640,459.477509 432.346771,461.059509 
	C432.305115,484.050110 432.442047,507.042084 432.209076,530.030457 
	C432.161011,534.775574 433.754974,536.007629 438.241943,535.903137 
	C447.339966,535.691284 449.266541,538.494995 447.244385,547.585266 
	C446.771393,549.711426 445.512787,550.241699 443.692841,550.244080 
	C430.698456,550.260864 417.704010,550.254150 404.709686,550.281921 
	C402.457275,550.286743 401.218170,549.418762 401.470856,547.005737 
	C401.505493,546.674805 401.522034,546.340576 401.522949,546.007751 
	C401.550079,536.029968 401.550446,535.838501 411.542969,535.884705 
	C415.780487,535.904297 416.893616,534.339478 416.876648,530.321350 
	C416.752655,501.000488 416.763306,471.678589 416.894958,442.357727 
	C416.911255,438.726715 415.934906,436.962250 412.144409,437.412384 
	C411.653259,437.470703 411.146301,437.397186 410.646698,437.382599 
	C402.035614,437.131165 400.187378,434.690521 401.639709,425.932098 
	C402.049744,423.459137 403.609283,423.049408 405.534180,423.041840 
	C418.028717,422.992889 430.523590,423.023804 443.017944,422.951263 
	C446.240204,422.932587 447.285095,424.398163 447.380157,427.528900 
	C447.646301,436.295532 447.760651,436.292053 437.445038,438.128693 
	C444.579071,445.552490 451.287720,452.533600 458.240051,459.772949 
M407.537231,428.626343 
	C406.323364,429.358307 405.093201,430.354340 406.152588,431.774689 
	C407.574799,433.681427 409.752502,433.032898 411.686310,432.625641 
	C412.722443,432.407440 413.570923,431.635498 413.474091,430.527252 
	C413.306183,428.604950 411.789246,428.264343 410.200684,428.225922 
	C409.541748,428.209991 408.879456,428.332184 407.537231,428.626343 
z"/>
<path fill="#000000" opacity="1.000000" stroke="none" 
	d="
M486.863159,250.685120 
	C503.157410,250.833359 518.476196,246.449097 534.164917,245.102341 
	C542.592346,244.378922 551.285828,244.433762 558.807373,247.398621 
	C565.087769,249.874207 574.136902,251.175583 574.524231,260.937286 
	C588.421875,258.887909 599.325928,265.546600 610.415649,271.194702 
	C614.832703,273.444336 618.788818,276.638184 622.836304,279.565918 
	C630.718811,285.267731 632.903503,293.238922 631.408081,302.442596 
	C630.796265,306.207855 630.460022,310.294922 628.709656,313.540497 
	C625.071411,320.286621 619.400024,325.268097 612.321960,328.466156 
	C599.578674,334.223877 585.874756,335.893097 572.300293,338.480225 
	C557.773926,341.248810 543.125977,341.482941 528.564941,341.934143 
	C509.468262,342.525879 490.350800,344.333527 471.172455,342.478271 
	C463.130219,341.700287 455.425751,339.983093 447.743988,337.790131 
	C442.140350,336.190430 436.449646,335.098053 430.703400,334.074249 
	C417.900940,331.793182 398.678070,320.210052 396.053131,305.288788 
	C393.588837,291.280762 400.033203,276.997009 412.574554,270.337585 
	C421.719391,265.481720 432.071045,263.570740 441.023010,258.264038 
	C443.207275,256.969238 446.105591,257.165283 448.385223,257.824860 
	C456.164734,260.075775 463.055969,256.911346 469.963043,254.548126 
	C475.369537,252.698318 480.803009,251.402267 486.863159,250.685120 
M412.904175,317.023773 
	C413.573029,317.417145 414.164062,318.162292 415.071411,317.522339 
	C411.008606,302.308899 411.008606,302.308899 413.925079,298.883820 
	C415.106079,305.671631 416.228790,312.292206 421.475098,318.495239 
	C421.126862,316.883759 421.005493,316.426941 420.931915,315.962524 
	C420.667694,314.294617 419.004028,312.195923 421.514099,311.184418 
	C423.960144,310.198761 424.451721,312.666870 425.282227,314.182861 
	C427.039429,317.390350 428.763519,320.606018 431.938690,322.815613 
	C433.453705,319.637573 434.994263,321.577637 436.613586,322.591278 
	C439.076630,324.133087 441.595337,327.913544 444.115723,326.437317 
	C447.184906,324.639587 448.108948,326.420959 449.386200,327.771973 
	C454.012268,332.665314 460.023285,333.166595 466.234039,333.536743 
	C461.531006,329.924774 457.114868,326.199341 454.605011,320.613068 
	C461.336395,323.603912 466.586273,329.671631 474.623474,329.975159 
	C474.791809,327.082214 471.661499,326.399963 472.686523,323.008362 
	C480.870972,326.950134 488.496918,331.924072 497.107086,334.462830 
	C494.156097,331.341705 490.198242,329.287109 489.154572,323.645905 
	C492.979340,326.204834 495.876526,328.633820 499.179749,330.214081 
	C502.429504,331.768738 505.962158,333.426208 510.404907,331.975159 
	C507.925964,328.462738 504.327454,326.195740 504.173187,321.494202 
	C511.011993,325.970825 517.214539,331.469208 526.543213,333.985321 
	C523.428223,331.646729 521.312378,330.156555 519.312073,328.524780 
	C517.765747,327.263306 515.801453,325.714600 517.280457,323.563599 
	C518.943115,321.145630 520.744324,323.136993 522.402222,324.132172 
	C529.321777,328.285828 537.717834,328.708862 544.651672,332.885986 
	C545.283997,333.266937 546.610046,333.338379 547.267395,332.230713 
	C545.889893,329.432465 541.594788,329.396393 540.809998,325.018463 
	C547.944397,326.463348 552.908447,333.283234 561.488159,331.830841 
	C557.357544,328.914978 553.882812,326.872925 551.310242,323.779144 
	C550.168274,322.405731 548.540283,320.913879 550.385010,319.040466 
	C552.057556,317.341980 553.408691,318.842255 554.696594,319.853210 
	C559.041870,323.263947 563.889648,325.863098 568.675903,328.563446 
	C570.705322,329.708405 572.733582,330.702545 575.210510,328.833557 
	C571.514099,324.955353 565.525940,323.515778 564.610107,317.489746 
	C570.979675,319.270569 575.243469,324.669434 581.585815,326.577332 
	C581.815247,324.177612 578.241699,322.449677 580.763428,320.494873 
	C583.391724,318.457458 584.836914,321.498138 586.671753,322.617004 
	C589.010376,324.043121 590.967407,326.385376 594.235291,325.703674 
	C592.097595,321.765869 585.705933,321.173462 585.777771,314.383362 
	C592.197876,317.286377 596.835938,322.080933 603.625305,322.760773 
	C602.107056,319.321259 597.910522,318.405273 597.228577,314.316772 
	C602.932861,314.748383 606.092102,322.689667 613.167297,319.034729 
	C605.860107,314.539490 605.400391,314.055786 604.558228,310.002289 
	C608.672913,311.320526 612.118408,314.084320 616.478943,314.453400 
	C617.047302,311.216553 612.637146,310.211823 613.231384,307.228699 
	C614.899231,305.852814 616.557129,308.615021 618.224731,306.601746 
	C617.929382,302.376373 611.733887,301.247803 611.997192,296.624634 
	C614.624878,294.995544 616.040771,298.400085 618.704224,297.413818 
	C618.795654,291.726227 614.893616,287.643890 612.235229,283.305176 
	C609.190063,278.335205 603.540039,276.302673 598.414612,273.866913 
	C595.384583,272.427002 593.402710,274.826874 590.970520,275.585571 
	C589.970337,275.897614 589.020813,276.073090 588.282532,275.069000 
	C587.261658,273.385376 589.909912,272.111755 589.049866,270.766479 
	C586.284668,267.600891 583.872070,268.764038 581.300964,270.456543 
	C577.923279,272.679993 574.903992,273.300446 574.330139,267.814850 
	C570.236450,269.801758 569.025818,274.944122 564.742981,275.892731 
	C562.994507,274.723145 565.213440,273.125763 563.409119,272.027557 
	C561.839233,273.972778 560.006470,275.794800 559.571655,278.294769 
	C558.322571,285.476929 553.902649,290.747528 549.357849,295.983490 
	C547.860718,297.708313 546.572998,297.248840 545.214478,295.745728 
	C543.658569,294.024323 543.038696,292.095306 543.275208,289.789337 
	C544.532959,277.526642 545.552246,265.201447 553.932495,255.121155 
	C554.182251,254.820724 554.041321,254.195496 554.062012,253.957367 
	C545.248596,247.244003 540.907837,257.321594 534.880859,259.877747 
	C532.866821,256.488068 536.332581,254.855286 535.160156,251.640808 
	C528.438354,254.099258 524.166443,260.284271 517.845215,263.494019 
	C515.405457,258.144684 520.511963,256.200439 521.705811,252.747955 
	C519.140259,252.055405 517.535645,253.336853 516.105957,254.696274 
	C510.762390,259.777100 506.977753,265.825897 506.342163,273.280212 
	C505.905670,278.399292 506.125305,283.586029 506.256104,288.737305 
	C506.330017,291.648956 505.488342,294.058014 502.406036,293.972198 
	C499.719788,293.897430 496.054016,294.618805 495.262726,290.299011 
	C495.056885,289.175079 494.901917,287.646393 494.144104,287.082764 
	C489.043457,283.289368 489.118439,277.710815 488.770325,272.287872 
	C488.500061,268.076752 489.752899,264.053711 490.581818,259.981445 
	C491.288330,256.510620 490.197174,254.901566 486.340485,255.687668 
	C482.925354,256.383759 479.440125,256.768188 475.971191,257.160583 
	C471.044708,257.717865 467.793274,260.424072 467.011078,265.179199 
	C465.564087,273.975800 461.591309,282.738861 465.940857,291.802246 
	C466.094482,292.122375 465.717041,292.697388 465.599335,293.110626 
	C460.542786,293.735382 455.459930,290.845795 454.381470,286.347565 
	C452.881287,280.090240 449.546967,274.196777 450.695221,267.395691 
	C449.568695,270.913513 450.718811,275.033691 447.185577,278.131592 
	C443.810486,273.511536 447.365204,269.234558 447.087189,263.805695 
	C437.910400,270.402374 427.495239,272.352234 418.163147,276.941559 
	C401.383972,285.193207 398.648773,303.876740 412.904175,317.023773 
M554.896912,262.378723 
	C552.945190,266.944672 549.680908,271.137024 550.500244,277.185120 
	C556.125549,272.949219 561.225586,269.069336 566.373169,265.253601 
	C568.238525,263.870819 571.323486,263.544891 570.047119,259.870392 
	C568.943481,256.693085 566.994263,255.011948 563.644653,254.471909 
	C557.811646,253.531494 557.085510,258.210266 554.896912,262.378723 
M496.844635,272.126404 
	C500.221466,271.270752 498.858276,267.889801 500.124512,265.864868 
	C502.333984,262.331543 504.119812,258.533356 506.218506,254.592072 
	C499.612244,254.252930 497.764893,255.484802 496.660553,260.736206 
	C495.905762,264.325500 495.584930,267.962372 496.844635,272.126404 
M460.107117,266.606232 
	C460.848114,264.761688 462.567322,263.203400 462.136292,260.863373 
	C455.174622,262.126953 456.445526,266.578522 457.676575,271.351349 
	C458.468567,269.796722 459.127258,268.503723 460.107117,266.606232 
z"/>
<path fill="#000000" opacity="1.000000" stroke="none" 
	d="
M334.930054,515.352539 
	C322.118744,515.353577 309.793488,515.462585 297.472137,515.290100 
	C293.764435,515.238220 291.596161,516.458496 290.330109,520.005676 
	C288.821991,524.231140 286.941528,528.329834 285.097351,532.427246 
	C283.729218,535.466919 284.596588,536.683777 287.899506,536.820618 
	C290.243500,536.917725 293.569427,535.547668 294.648193,538.431824 
	C295.979584,541.991211 295.616425,546.000916 294.771637,549.746521 
	C294.362610,551.560364 292.412842,551.302795 290.955231,551.304993 
	C278.298492,551.324341 265.641479,551.267090 252.985001,551.327942 
	C250.071365,551.341980 248.572250,550.256958 248.769516,547.238586 
	C248.780350,547.072998 248.770325,546.905396 248.762329,546.739197 
	C248.283936,536.800537 248.316956,536.295349 258.134796,536.938171 
	C264.694611,537.367798 267.479767,534.695435 269.902496,529.075989 
	C282.290253,500.342743 295.055420,471.772247 307.687561,443.144379 
	C308.281158,441.799164 309.102356,440.506470 308.828339,438.829865 
	C306.072205,437.502106 303.210785,438.111420 300.459229,438.111908 
	C297.166168,438.112488 295.728210,436.961792 295.632538,433.439362 
	C295.364380,423.566864 295.229797,423.580658 305.120514,423.589417 
	C315.767181,423.598846 326.417694,423.751526 337.058502,423.500519 
	C341.130066,423.404480 342.508423,424.959290 342.147705,428.743195 
	C342.037598,429.898560 342.035950,431.081818 342.144470,432.237305 
	C342.541046,436.460144 340.869659,438.222107 336.440582,438.169800 
	C329.297180,438.085419 329.189362,438.473267 332.062714,445.200012 
	C344.550079,474.433807 357.080353,503.649475 369.482330,532.919434 
	C370.722504,535.846313 372.443970,537.120667 375.537018,536.784363 
	C376.688873,536.659119 377.866272,536.770630 379.032043,536.771545 
	C388.384766,536.778809 390.406494,539.467163 388.305115,548.736816 
	C387.808899,550.925781 386.465363,551.282959 384.692963,551.285461 
	C371.703247,551.304199 358.713440,551.290405 345.723846,551.330994 
	C343.213165,551.338806 342.268860,550.150024 342.010925,547.720520 
	C341.176331,539.859741 342.979950,537.539429 350.907349,536.724304 
	C351.726532,536.640076 352.585022,536.681763 353.666656,535.098755 
	C351.190277,529.410278 348.974304,522.953003 345.633911,517.142029 
	C343.515564,513.457031 338.872772,515.963684 334.930054,515.352539 
M325.487122,467.935120 
	C323.299164,463.733032 322.436615,458.880341 318.687531,454.046234 
	C311.985687,469.752625 305.609467,484.695862 298.901489,500.416626 
	C312.605316,500.416626 325.228577,500.416626 338.906860,500.416626 
	C334.343628,489.389984 330.052338,479.020447 325.487122,467.935120 
z"/>
<path fill="#000000" opacity="1.000000" stroke="none" 
	d="
M182.016434,550.289917 
	C164.470535,552.392822 147.295639,550.878479 130.155594,551.270630 
	C128.159744,551.316284 126.976128,550.339905 126.927940,548.312866 
	C126.860664,545.482544 126.803078,542.644409 126.937119,539.818909 
	C127.083328,536.736633 129.455383,536.726624 131.678864,536.773254 
	C141.774750,536.984802 140.645767,537.090271 140.657318,527.435974 
	C140.690613,499.606171 140.563629,471.775513 140.768463,443.947174 
	C140.803101,439.242096 139.271347,437.742401 134.753616,438.006958 
	C132.282623,438.151611 128.772400,439.448883 127.469414,436.496948 
	C125.925400,432.998901 126.666649,428.954865 127.153801,425.170471 
	C127.353210,423.621368 128.965637,423.198029 130.311127,423.288269 
	C148.091156,424.480591 166.019806,421.872681 183.694214,424.840088 
	C211.087921,429.439301 229.608521,447.161163 234.830292,474.075623 
	C239.915955,500.288696 230.815781,526.192017 207.621033,541.048889 
	C199.912369,545.986572 191.380295,548.652710 182.016434,550.289917 
M156.133499,477.500000 
	C156.135010,495.317932 156.275574,513.137695 156.044022,530.952576 
	C155.983170,535.634888 157.588486,537.132263 162.101257,536.838318 
	C168.230698,536.438965 174.371521,536.876465 180.516022,535.846191 
	C199.323654,532.692688 214.991928,518.171753 219.363968,499.449860 
	C224.135864,479.015686 216.685837,458.401642 200.658234,447.229797 
	C188.796570,438.961761 175.368286,437.877808 161.527679,438.013367 
	C157.376709,438.054016 156.003815,439.423431 156.080139,443.529846 
	C156.284348,454.516449 156.140182,465.509491 156.133499,477.500000 
z"/>
<path fill="#000000" opacity="1.000000" stroke="none" 
	d="
M624.627380,427.118225 
	C649.671143,434.431061 666.701538,457.265900 667.431030,483.000977 
	C667.927490,500.513733 664.226074,516.255310 652.382568,529.729614 
	C639.775085,544.073059 623.479187,550.248108 605.056763,551.143494 
	C591.258240,551.814148 577.401917,551.228394 563.573730,551.397827 
	C559.893982,551.442810 558.294189,550.147583 558.677246,546.474548 
	C558.763184,545.650696 558.682678,544.809631 558.681030,543.976501 
	C558.666870,536.798218 558.680542,536.519348 565.747253,536.862061 
	C570.602478,537.097595 572.001465,535.414551 571.968750,530.627869 
	C571.770874,501.635864 571.773560,472.641418 571.935913,443.649048 
	C571.961182,439.138489 570.355957,437.752533 566.095337,438.006104 
	C563.768799,438.144562 560.360718,439.307251 559.302368,436.535370 
	C557.889526,432.834991 558.386047,428.663605 559.133484,424.725006 
	C559.342346,423.624664 560.636658,423.508850 561.638245,423.543152 
	C578.605652,424.124268 595.606812,422.588531 612.559265,424.431061 
	C616.571716,424.867096 620.354980,426.116699 624.627380,427.118225 
M599.452942,438.159698 
	C597.621216,438.142151 595.789490,438.111908 593.957764,438.109314 
	C587.536987,438.100250 587.437195,438.176636 587.416077,444.402466 
	C587.379944,455.059753 587.366150,465.717163 587.362915,476.374542 
	C587.357300,494.691986 587.464111,513.010315 587.296387,531.326172 
	C587.258606,535.453796 588.604919,537.090515 592.754272,536.822021 
	C596.735291,536.564514 600.751587,536.887390 604.738831,536.686523 
	C624.415771,535.695068 639.466492,526.697632 647.463623,508.716370 
	C655.586121,490.453491 654.244141,472.229523 641.510681,456.016510 
	C631.131348,442.800873 616.619324,438.354919 599.452942,438.159698 
z"/>
<path fill="#000000" opacity="1.000000" stroke="none" 
	d="
M768.998413,460.964752 
	C762.711975,469.808167 756.667603,478.385345 750.535156,486.899048 
	C749.014282,489.010376 748.203918,491.178894 748.217957,493.824097 
	C748.285217,506.484741 748.360840,519.148193 748.147766,531.805847 
	C748.078735,535.907959 749.770264,536.886536 753.497925,536.855591 
	C764.592407,536.763733 763.173462,535.059387 763.420288,547.694214 
	C763.469299,550.204468 762.604126,551.345032 759.983582,551.332642 
	C746.989624,551.271240 733.995056,551.265381 721.001160,551.324219 
	C718.185242,551.336975 717.086731,549.997070 717.108582,547.376221 
	C717.114075,546.710144 717.087830,546.043762 717.081177,545.377563 
	C716.995911,536.812927 716.996216,536.812927 725.506836,536.789246 
	C732.646606,536.769348 732.654602,536.769409 732.658569,529.622375 
	C732.664978,517.960876 732.598999,506.298798 732.703735,494.638245 
	C732.729004,491.830048 732.027954,489.477386 730.391418,487.211731 
	C719.468140,472.089294 708.459473,457.024628 697.810730,441.710175 
	C694.281494,436.634644 689.252808,437.913757 684.730469,437.625122 
	C681.110107,437.394012 680.278442,436.438019 680.468933,432.929443 
	C681.015137,422.869324 680.855347,422.889038 691.116333,422.934662 
	C700.945129,422.978363 710.774231,422.931396 720.603088,422.969177 
	C726.611572,422.992279 726.935242,423.365601 726.575989,429.147308 
	C726.037415,437.814545 726.037354,437.814545 714.823853,437.922211 
	C723.429321,450.234711 731.579590,461.895905 740.338684,474.428223 
	C749.012573,462.052612 757.155090,450.435181 765.162048,439.011108 
	C764.218567,437.317444 763.117065,437.859222 762.198792,437.878601 
	C753.950806,438.052795 753.851013,437.964539 753.940491,429.676910 
	C754.010864,423.155853 754.187317,422.978058 760.722900,422.974731 
	C772.051208,422.968964 783.381958,423.099731 794.706665,422.897491 
	C799.004578,422.820740 800.975769,424.202911 800.357910,428.658081 
	C800.153931,430.129333 800.207947,431.662842 800.344177,433.149536 
	C800.669067,436.695465 798.886963,438.386383 795.640198,437.653442 
	C788.050415,435.940063 783.558411,439.283173 779.897339,445.605927 
	C776.824463,450.912842 772.807068,455.672882 768.998413,460.964752 
z"/>
<path fill="#000000" opacity="1.000000" stroke="none" 
	d="
M903.326538,533.002441 
	C897.498718,546.422729 886.771362,553.285645 873.459961,552.422119 
	C861.520386,551.647705 850.883118,543.055725 847.557434,531.500061 
	C844.195557,519.818665 848.625793,506.781860 858.275085,499.961304 
	C868.833191,492.498413 882.404114,492.446686 892.851318,499.829376 
	C903.102783,507.073608 907.158203,519.636475 903.326538,533.002441 
M872.004456,544.859802 
	C873.330688,544.929871 874.657776,545.073120 875.983093,545.058289 
	C885.322693,544.953552 891.716431,540.065430 895.537903,532.010437 
	C899.393555,523.883423 897.895264,515.929138 892.178711,509.223541 
	C886.330261,502.363098 878.685425,499.739624 869.755310,502.293335 
	C860.530518,504.931335 854.228149,513.436218 854.152405,523.079224 
	C854.068420,533.771057 860.065002,541.410950 872.004456,544.859802 
z"/>
<path fill="#000000" opacity="1.000000" stroke="none" 
	d="
M813.212402,544.816895 
	C820.192871,546.615540 825.768372,544.158936 830.721191,540.230774 
	C833.149963,538.304443 834.780334,537.757690 836.878662,540.422119 
	C839.105774,543.250061 837.013245,544.600037 835.206543,546.083801 
	C825.818542,553.794006 812.582703,554.505310 802.135071,547.885620 
	C791.685669,541.264832 786.628601,528.258362 789.782593,516.115417 
	C792.879089,504.193512 803.537598,495.444244 815.727112,494.701416 
	C825.115173,494.129333 833.057373,497.127441 839.465027,504.039948 
	C840.603821,505.268494 841.915833,506.746277 840.357300,508.374817 
	C838.470764,510.346222 837.162048,513.289246 833.927979,513.387878 
	C832.516663,513.430969 831.227661,512.089172 831.211060,510.846893 
	C831.174683,508.136017 831.417847,505.715668 828.213867,504.363556 
	C824.039856,502.602081 819.957092,500.793884 815.269348,501.658447 
	C804.892822,503.572235 797.218018,511.611115 796.352051,521.471252 
	C795.415466,532.135620 801.389954,540.571167 813.212402,544.816895 
z"/>
<path fill="#000000" opacity="1.000000" stroke="none" 
	d="
M400.309265,624.899658 
	C400.304962,626.383423 400.349579,627.384705 400.285278,628.378967 
	C400.191711,629.827271 400.502930,631.567383 398.584961,632.105225 
	C396.634583,632.651978 395.012238,632.069397 393.820343,630.327515 
	C390.251007,625.111206 386.641937,619.921997 383.056976,614.716248 
	C380.447083,610.926392 377.850769,607.127014 374.216888,603.572754 
	C374.216888,610.801880 374.223602,618.030945 374.211365,625.260071 
	C374.208832,626.755676 374.194977,628.255798 374.078857,629.745422 
	C373.960510,631.263550 373.163818,632.239441 371.526703,632.184875 
	C369.863556,632.129578 369.144257,630.995361 369.143036,629.542847 
	C369.133453,618.399109 369.171509,607.255188 369.243469,596.111694 
	C369.251556,594.864258 369.868317,593.956909 371.283051,593.682922 
	C373.576263,593.238892 375.021606,594.197998 376.279480,596.048584 
	C381.234955,603.339417 386.262634,610.581543 391.312439,617.807617 
	C392.323517,619.254456 392.951965,621.095703 395.650391,622.088318 
	C395.650391,614.870850 395.649750,607.976746 395.651001,601.082642 
	C395.651215,599.918091 395.613800,598.751160 395.674896,597.589600 
	C395.767395,595.832031 395.311523,593.578552 398.174194,593.708008 
	C400.677216,593.821167 400.277466,595.888489 400.285217,597.463196 
	C400.329468,606.446594 400.308350,615.430420 400.309265,624.899658 
z"/>
<path fill="#000000" opacity="1.000000" stroke="none" 
	d="
M374.605713,811.276855 
	C376.475616,817.874817 375.741638,824.364990 375.970001,830.799255 
	C376.045258,832.919128 375.981873,835.044006 375.981873,838.557983 
	C381.692383,832.419434 386.523987,827.272827 391.295776,822.071350 
	C393.049438,820.159668 394.754303,818.154724 397.597504,820.029846 
	C400.318237,821.824158 398.313477,823.909851 397.615875,825.751221 
	C394.964722,832.749451 392.209351,839.708618 389.436951,846.660095 
	C388.854919,848.119446 388.479736,850.357361 386.213715,849.569885 
	C383.650146,848.679016 384.805542,846.661987 385.452972,844.967651 
	C387.403351,839.863342 389.360596,834.761719 391.717072,828.609863 
	C386.152039,833.081055 382.467285,837.891541 378.293121,842.210144 
	C377.102478,843.442078 376.151154,845.509094 373.859039,844.678833 
	C371.406464,843.790466 371.766815,841.533813 371.753845,839.581238 
	C371.712402,833.349182 371.738434,827.116638 370.865479,820.760559 
	C368.833557,825.962830 366.858551,831.188538 364.735168,836.353210 
	C364.095367,837.909363 363.738251,840.500916 361.254120,839.656616 
	C358.754608,838.807068 359.940704,836.658386 360.584503,834.996948 
	C363.408417,827.709595 366.331024,820.460022 369.100983,813.152527 
	C370.143799,810.401367 371.605652,809.328552 374.605713,811.276855 
z"/>
<path fill="#000000" opacity="1.000000" stroke="none" 
	d="
M312.356873,610.573364 
	C315.136139,611.372925 317.569397,611.967834 319.898071,612.841431 
	C323.982971,614.374023 325.867828,617.710999 325.894653,621.808350 
	C325.921112,625.845215 324.256165,629.400940 320.373962,631.197388 
	C313.980560,634.156006 307.453064,634.162598 301.065125,631.129395 
	C297.431488,629.404053 295.920166,626.095337 295.227661,622.321167 
	C294.965393,620.891602 295.032349,619.546509 296.641174,619.044312 
	C298.420532,618.489014 299.309540,619.493896 300.026306,621.083069 
	C303.159698,628.030273 306.932434,630.069336 314.129974,628.613892 
	C317.388245,627.955017 320.173462,626.386719 320.698395,622.691345 
	C321.243042,618.857239 318.467133,617.330261 315.533508,616.375427 
	C311.743317,615.141907 307.821198,614.319824 303.978607,613.239746 
	C299.333038,611.934021 296.350708,609.076233 296.328796,604.018921 
	C296.308044,599.227600 298.550629,595.638855 303.076813,593.898254 
	C308.678680,591.744019 314.212677,592.220459 319.433899,595.214050 
	C321.847900,596.598206 323.411041,598.787476 324.076294,601.475342 
	C324.424744,602.883118 324.784698,604.611389 322.813416,605.255798 
	C321.068054,605.826233 320.037323,604.953552 319.402435,603.281311 
	C317.298340,597.739258 312.818298,596.682800 307.595245,597.277039 
	C304.270721,597.655334 301.945892,599.479004 301.412384,602.836365 
	C300.849091,606.381348 303.315216,607.865723 306.220093,608.787598 
	C308.123474,609.391663 310.048462,609.927673 312.356873,610.573364 
z"/>
<path fill="#000000" opacity="1.000000" stroke="none" 
	d="
M512.072083,744.138062 
	C516.306396,741.852112 518.603638,739.060181 517.120728,733.965027 
	C515.895203,729.754333 519.682373,723.544434 523.754700,721.682251 
	C524.818115,721.195984 525.695496,721.289490 526.499817,722.013123 
	C527.567993,722.974060 527.478149,724.082336 526.588928,725.093079 
	C525.600586,726.216553 524.575867,727.319641 523.471680,728.327148 
	C521.706970,729.937378 521.005432,731.733643 521.748169,734.130188 
	C523.105530,738.509705 522.328796,742.352478 518.526855,745.283997 
	C515.605774,747.536377 516.312378,749.577759 518.706055,751.795776 
	C521.757874,754.623779 524.693176,757.585938 527.549988,760.611755 
	C528.791748,761.926880 531.466431,763.289246 529.384094,765.448669 
	C526.992615,767.928711 525.617737,764.941528 524.211243,763.625977 
	C521.050720,760.669800 517.976013,757.612305 515.010376,754.460632 
	C512.958313,752.279968 511.327850,752.249023 509.250031,754.498779 
	C506.089233,757.921204 502.705505,761.140747 499.358643,764.386902 
	C498.115967,765.592163 496.811768,767.621765 494.858429,765.524963 
	C492.938904,763.464600 495.036255,762.198914 496.253845,761.019165 
	C500.306976,757.091858 504.461090,753.268860 508.023102,749.925476 
	C507.920197,746.629578 506.112579,745.715942 504.872040,744.485107 
	C502.429077,742.061462 501.175659,739.314941 502.233826,735.919189 
	C503.363892,732.292603 502.402924,729.510681 499.553192,727.036804 
	C498.197205,725.859680 495.760834,724.274536 497.857147,722.161682 
	C500.356598,719.642456 501.452820,722.899170 502.975861,724.051208 
	C507.020172,727.110168 508.294586,731.046997 506.781921,735.941284 
	C505.385315,740.459961 509.176788,741.947876 512.072083,744.138062 
z"/>
<path fill="#000000" opacity="1.000000" stroke="none" 
	d="
M508.413300,783.162659 
	C508.609131,779.441162 508.644440,776.113342 508.711700,772.786316 
	C508.757263,770.532104 508.757263,768.410156 505.765045,767.913147 
	C504.492004,767.701599 503.763519,766.690735 504.061462,765.317200 
	C504.312683,764.158936 505.296204,763.788086 506.339111,763.771484 
	C509.499542,763.721313 512.661987,763.693909 515.821716,763.756470 
	C516.856201,763.776978 517.784180,764.260742 517.954346,765.464050 
	C518.115784,766.605286 517.575317,767.585571 516.520020,767.768494 
	C513.038391,768.372070 513.252747,770.896729 513.263489,773.457336 
	C513.304810,783.279968 513.300049,793.102783 513.303772,802.925537 
	C513.304321,804.423096 513.307495,805.923462 513.221069,807.417419 
	C513.137817,808.855957 512.675293,810.097839 510.905304,810.041199 
	C509.095459,809.983398 508.823608,808.591858 508.797729,807.231384 
	C508.718567,803.070435 508.710663,798.907715 508.715302,794.745728 
	C508.718353,791.993469 508.946930,789.373901 504.834717,789.297058 
	C501.293671,789.230957 500.300232,790.772339 500.053528,794.028076 
	C499.701172,798.677612 498.426422,803.194763 496.781647,807.569580 
	C496.201782,809.111938 495.517639,810.995605 493.281128,810.078186 
	C491.054382,809.164917 491.946533,807.408875 492.530701,805.838745 
	C497.264191,793.115784 497.155365,781.081177 487.486450,770.409241 
	C486.330780,769.133728 485.892761,767.794800 487.415436,766.538818 
	C488.821564,765.378845 489.914307,766.362671 490.854736,767.338928 
	C494.254791,770.869141 496.682129,774.978699 498.289551,779.622437 
	C500.297607,785.423645 502.335358,786.177124 508.413300,783.162659 
z"/>
<path fill="#000000" opacity="1.000000" stroke="none" 
	d="
M596.947266,631.390869 
	C594.784851,629.870728 593.592957,628.065857 592.922302,625.971985 
	C592.531128,624.750610 592.049011,623.234924 593.767944,622.537903 
	C594.971619,622.049744 596.326416,622.447571 596.799438,623.584534 
	C598.725708,628.214600 602.149780,630.124756 606.772949,628.470642 
	C611.710144,626.704041 612.466248,621.994751 613.341797,616.829956 
	C608.898132,618.976074 604.880798,621.138733 600.067566,619.435425 
	C594.506531,617.467529 590.952881,612.498047 591.278015,606.407410 
	C591.629517,599.821411 595.809387,595.027832 602.165222,593.921997 
	C608.713623,592.782532 614.042297,595.474426 616.282410,601.360779 
	C618.779602,607.922852 619.016113,614.708984 617.304993,621.489624 
	C614.621277,632.124023 607.621948,635.601379 596.947266,631.390869 
M598.774048,600.215393 
	C594.166687,606.844910 596.177429,614.666382 602.778259,615.664551 
	C606.859497,616.281677 610.034973,614.792969 611.768250,611.009399 
	C613.483643,607.264893 613.496216,603.399719 610.347412,600.416931 
	C607.053589,597.296753 603.192078,597.374756 598.774048,600.215393 
z"/>
<path fill="#000000" opacity="1.000000" stroke="none" 
	d="
M549.512207,848.940247 
	C548.619080,854.729614 547.850159,860.156067 546.916809,865.554077 
	C546.615479,867.297119 546.326111,869.323975 543.802856,869.403015 
	C541.573669,869.472961 541.185913,867.662598 540.575317,866.169128 
	C537.493164,858.630310 534.441345,851.078979 531.412231,843.518677 
	C530.821167,842.043396 529.569275,840.178406 531.858032,839.267944 
	C534.280029,838.304504 534.950745,840.485291 535.612366,842.176025 
	C537.969177,848.198425 540.275818,854.240479 543.000183,861.309692 
	C545.334290,854.629883 545.668457,848.619202 546.708923,842.766479 
	C547.105286,840.537048 546.675476,837.657776 549.680054,837.111206 
	C553.188477,836.473083 553.410400,839.742554 554.329895,841.895325 
	C556.669128,847.371887 558.878357,852.903931 561.538025,859.384583 
	C563.707275,853.266785 563.537048,847.811035 564.630127,842.606995 
	C564.765869,841.960693 564.625671,841.239319 564.834961,840.628723 
	C565.529785,838.601807 564.874084,834.849182 567.980286,835.379578 
	C571.245972,835.937195 569.265259,839.285400 568.991150,841.266418 
	C567.945068,848.826050 566.553589,856.337402 565.345093,863.875427 
	C565.071716,865.580872 564.915955,867.325134 562.722168,867.499573 
	C560.594849,867.668762 560.039307,866.006165 559.379639,864.423279 
	C556.722412,858.047791 554.008240,851.696045 550.901611,844.358765 
	C550.236877,846.463318 549.904724,847.514771 549.512207,848.940247 
z"/>
<path fill="#000000" opacity="1.000000" stroke="none" 
	d="
M442.037537,632.552185 
	C432.432861,634.390076 425.534546,631.642700 421.379608,624.608765 
	C416.989441,617.176575 417.838989,605.029846 423.196075,598.636841 
	C427.729401,593.226868 436.014893,591.202576 443.327545,593.737976 
	C447.301544,595.115784 450.333832,597.610352 451.892090,601.567566 
	C452.450378,602.985352 453.539429,604.923279 451.278137,605.870422 
	C449.385040,606.663269 448.164551,605.454041 447.381042,603.754456 
	C445.367126,599.385742 441.967224,597.253723 437.130371,597.116699 
	C431.872437,596.967712 428.145020,599.330200 425.757812,603.801575 
	C422.456360,609.985413 422.507812,616.286560 425.903595,622.422791 
	C428.384796,626.906372 432.325623,628.933960 437.474426,628.812683 
	C442.472290,628.694824 445.369598,625.819824 447.390594,621.664429 
	C447.680969,621.067383 447.880554,620.426086 448.120667,619.804688 
	C448.734161,618.216736 449.376892,616.372131 451.545593,617.083801 
	C454.105133,617.923828 453.147491,620.006226 452.611877,621.696350 
	C450.962738,626.900146 447.967102,630.881775 442.037537,632.552185 
z"/>
<path fill="#000000" opacity="1.000000" stroke="none" 
	d="
M697.752136,594.703735 
	C699.775146,594.912598 701.978699,594.393127 701.889648,596.905029 
	C701.807312,599.228760 699.720947,599.018555 698.096741,599.105530 
	C696.601318,599.185730 695.099060,599.141846 693.599854,599.147827 
	C685.844910,599.178894 685.844910,599.178406 684.532593,607.579712 
	C686.512146,607.287476 688.381653,606.859680 690.268311,606.760986 
	C696.441040,606.437927 701.457947,609.676392 703.166931,614.945862 
	C705.200989,621.217407 703.255615,627.754150 698.396851,630.973938 
	C693.371216,634.304321 685.738831,634.051147 681.591431,630.230225 
	C680.407349,629.139343 679.395264,627.674194 678.798767,626.182922 
	C678.128967,624.508301 676.537476,622.201904 679.341858,621.068665 
	C681.819397,620.067566 682.201050,622.561340 683.055908,624.078918 
	C685.633911,628.655334 690.703735,630.349182 694.862549,628.037903 
	C698.942261,625.770752 700.593079,619.536072 698.212769,615.385376 
	C695.803284,611.183777 690.459167,609.826172 685.999634,612.129395 
	C684.073059,613.124451 682.575256,616.359558 680.058228,614.535767 
	C677.562134,612.726990 679.434753,609.721558 679.950134,607.558044 
	C683.607910,592.203308 679.407288,595.041199 695.286682,594.695435 
	C695.952637,594.680908 696.619324,594.696350 697.752136,594.703735 
z"/>
<path fill="#000000" opacity="1.000000" stroke="none" 
	d="
M472.786316,594.055664 
	C480.836243,593.747437 488.491272,593.638062 496.146423,593.534546 
	C497.415558,593.517334 498.562012,593.821777 498.689697,595.314514 
	C498.850006,597.189209 497.502502,597.472046 496.066650,597.469299 
	C490.901886,597.459290 485.733582,597.531006 480.573517,597.361084 
	C475.428558,597.191589 476.271210,600.816406 476.218140,603.888184 
	C476.166260,606.890564 475.665344,610.166321 480.434113,610.000000 
	C484.760498,609.849121 489.096741,609.927185 493.427521,609.986694 
	C495.098053,610.009583 497.111816,610.078125 496.904724,612.470459 
	C496.726562,614.528442 494.817657,614.273865 493.364441,614.288818 
	C489.032898,614.333435 484.697845,614.401428 480.369659,614.274048 
	C477.389954,614.186401 476.322815,615.403992 476.170563,618.382751 
	C475.645935,628.646240 475.550690,628.665710 485.851105,628.619568 
	C489.180298,628.604614 492.508301,628.375671 495.837769,628.344360 
	C497.160248,628.331909 498.709656,628.425415 498.826904,630.229797 
	C498.948730,632.104675 497.432068,632.305237 496.078003,632.309326 
	C488.914185,632.331299 481.750183,632.299866 474.586304,632.267395 
	C472.838989,632.259521 471.653473,631.459900 471.698944,629.595764 
	C471.986115,617.817017 470.741516,606.007751 472.786316,594.055664 
z"/>
<path fill="#000000" opacity="1.000000" stroke="none" 
	d="
M318.282623,793.325684 
	C319.874054,790.954102 321.244415,788.868225 322.658325,786.812195 
	C323.497925,785.591248 324.587860,784.867615 326.014923,785.871948 
	C327.500702,786.917480 326.937103,788.196228 326.159729,789.362793 
	C321.455048,796.422974 316.740356,803.476562 311.996094,810.510193 
	C311.248444,811.618591 310.359100,812.763611 308.748474,812.182434 
	C306.836945,811.492676 306.658356,809.844482 306.605560,808.099731 
	C306.384033,800.784912 306.123413,793.471313 305.862885,786.157776 
	C305.834076,785.348694 305.714081,784.542908 305.505035,782.371277 
	C301.580109,788.169373 298.349426,793.047546 294.990570,797.835754 
	C294.050079,799.176453 293.353424,801.780273 290.961517,800.273193 
	C288.654144,798.819397 290.373199,797.052307 291.338165,795.589172 
	C295.276215,789.618225 299.200684,783.635986 303.282227,777.763550 
	C304.418488,776.128662 305.016571,773.144104 307.779602,773.873291 
	C311.002167,774.723572 310.221588,777.824097 310.244171,780.214844 
	C310.314575,787.661560 310.269989,795.109375 310.269989,803.565063 
	C314.299316,800.404846 315.726929,796.640503 318.282623,793.325684 
z"/>
<path fill="#000000" opacity="1.000000" stroke="none" 
	d="
M325.052246,818.120850 
	C328.807190,810.874084 332.458252,803.985352 335.922516,797.003906 
	C337.410370,794.005554 339.187500,793.048828 342.173645,794.981506 
	C343.559479,795.878479 345.123566,796.494873 346.570648,797.303345 
	C358.039856,803.711121 359.565704,814.850159 350.312714,824.363220 
	C346.588745,828.191956 341.983063,829.399658 337.090698,827.843994 
	C333.182343,826.601257 329.575531,824.394958 325.861847,822.561768 
	C323.951416,821.618713 323.806732,820.150330 325.052246,818.120850 
M338.334106,824.118286 
	C344.963959,825.076538 350.406372,820.084167 352.118378,811.473877 
	C353.147156,806.299683 347.856476,800.874268 339.891663,799.197815 
	C337.469177,803.818970 335.003876,808.521851 332.538635,813.224731 
	C328.813538,820.331055 328.812469,820.333557 336.184723,823.430969 
	C336.643127,823.623474 337.138641,823.727661 338.334106,824.118286 
z"/>
<path fill="#000000" opacity="1.000000" stroke="none" 
	d="
M717.539551,772.107666 
	C725.785522,769.235657 732.909363,771.907043 737.551270,779.298706 
	C741.724854,785.944519 741.276123,793.783081 736.457458,798.657166 
	C732.062378,803.102783 726.785217,804.654358 720.931519,802.522339 
	C713.927002,799.971252 709.945374,794.555603 708.844910,787.280029 
	C707.788696,780.297302 711.091309,775.444458 717.539551,772.107666 
M729.179016,798.780396 
	C736.454407,794.653137 738.108337,789.704834 734.510254,782.830078 
	C730.934937,775.998779 724.228455,773.114380 718.643738,776.006104 
	C713.775818,778.526733 711.717834,783.455933 713.436462,788.478210 
	C716.065430,796.160706 721.834595,800.217773 729.179016,798.780396 
z"/>
<path fill="#000000" opacity="1.000000" stroke="none" 
	d="
M768.017090,733.811279 
	C764.972961,737.931702 769.262390,738.749939 770.767151,740.608643 
	C772.391113,742.614624 774.016174,741.308044 775.365845,739.882874 
	C777.657104,737.463440 779.916992,735.014038 782.224670,732.610413 
	C783.153748,731.642639 784.261475,730.486206 785.635864,731.616760 
	C787.295105,732.981689 786.155090,734.315063 785.113098,735.436096 
	C783.071167,737.632812 781.116699,739.945129 778.854004,741.893799 
	C775.832520,744.495972 776.521545,746.453979 779.230774,748.721130 
	C781.593262,750.698303 783.464050,753.207520 786.457336,749.360840 
	C788.696716,746.482971 791.454590,744.004395 794.025146,741.390808 
	C794.850037,740.552246 795.867004,739.701538 797.069031,740.665649 
	C798.566284,741.866455 797.685242,743.037476 796.744263,744.059631 
	C793.020691,748.104614 789.252319,752.108459 785.539551,756.163330 
	C783.968750,757.878845 782.516968,757.845703 780.852722,756.267883 
	C774.806519,750.535889 768.724243,744.841797 762.636414,739.153748 
	C760.878113,737.510925 760.545349,735.913147 762.343323,734.033875 
	C766.028870,730.181519 769.625244,726.243958 773.301941,722.382996 
	C774.233582,721.404602 775.385925,720.407288 776.716370,721.728333 
	C778.039368,723.041809 777.012207,724.217163 776.119995,725.191528 
	C773.531982,728.017883 770.871460,730.777771 768.017090,733.811279 
z"/>
<path fill="#000000" opacity="1.000000" stroke="none" 
	d="
M467.346863,849.002869 
	C466.837006,864.070984 455.200714,870.758423 441.701782,864.304382 
	C439.684204,863.339722 439.574097,861.852051 439.825043,860.218384 
	C441.085571,852.012573 442.456726,843.823792 443.784241,835.628235 
	C444.105316,833.645813 445.214294,832.614990 447.241241,833.018066 
	C451.310364,833.827332 455.469360,834.401917 459.390900,835.685425 
	C465.450745,837.668884 467.750702,842.367249 467.346863,849.002869 
M459.370453,840.030090 
	C457.269318,838.519653 454.734985,838.355652 452.341858,837.726135 
	C449.013611,836.850464 447.513519,837.875671 447.122955,841.477295 
	C446.570923,846.567566 445.439270,851.594666 444.562653,856.650085 
	C444.203979,858.718689 444.105957,860.591003 446.683014,861.476074 
	C451.606689,863.167114 458.499969,861.654968 460.844482,858.240173 
	C464.798523,852.481140 464.454254,845.262390 459.370453,840.030090 
z"/>
<path fill="#000000" opacity="1.000000" stroke="none" 
	d="
M252.359039,761.352844 
	C251.260010,762.396545 250.468445,763.264465 249.555161,763.976135 
	C248.693192,764.647705 247.712234,764.686829 246.840057,763.891785 
	C245.759796,762.907104 245.839996,761.806396 246.761810,760.831726 
	C248.703156,758.778992 250.681259,756.757080 252.720703,754.802246 
	C254.383926,753.208069 255.134674,751.673767 253.207352,749.735840 
	C250.181763,746.693542 247.215958,743.591675 242.946686,739.200317 
	C240.714584,742.056580 238.916595,744.647339 236.803619,746.948792 
	C235.599884,748.259949 234.185410,750.848267 231.986496,748.829956 
	C229.670700,746.704346 232.292786,745.301819 233.569901,744.038086 
	C239.007172,738.657593 244.516586,733.348755 250.069183,728.087036 
	C251.279556,726.940063 252.685455,724.714417 254.535675,726.911560 
	C256.194183,728.880981 254.192215,730.270386 252.877472,731.425171 
	C250.893234,733.167908 248.742142,734.720642 246.707932,736.317993 
	C249.970947,741.435669 253.682098,744.283813 256.898621,747.572998 
	C258.139465,748.841797 259.307861,748.171875 260.370697,747.184875 
	C261.711060,745.940186 262.972717,744.594177 264.412354,743.477539 
	C265.807434,742.395447 267.105499,739.526001 269.210419,741.962524 
	C271.193848,744.258484 268.366852,745.431458 267.130371,746.694580 
	C262.360901,751.567383 257.463257,756.314758 252.359039,761.352844 
z"/>
<path fill="#000000" opacity="1.000000" stroke="none" 
	d="
M669.201416,159.087479 
	C668.634155,160.329697 668.259338,161.260895 667.765076,162.123718 
	C667.099792,163.285278 666.090881,163.785080 664.841125,163.074921 
	C663.804260,162.485809 663.693176,161.424545 664.133972,160.459137 
	C667.379272,153.351120 670.659607,146.258896 673.971313,139.181595 
	C674.501892,138.047760 675.440735,137.371460 676.804260,137.685349 
	C678.557068,138.088852 679.043213,139.411484 679.303223,140.997620 
	C680.424683,147.839279 681.596924,154.672592 682.827576,161.964462 
	C685.290710,160.672043 685.625671,158.406311 686.538269,156.631332 
	C688.134216,153.526947 689.529663,150.320099 691.067688,147.184875 
	C691.616638,146.065735 692.493286,145.264771 693.870911,145.813553 
	C695.281494,146.375412 695.379639,147.637405 694.862488,148.737152 
	C691.468262,155.955414 688.388367,163.369858 684.348145,170.213974 
	C682.550842,173.258530 680.257202,170.926300 679.744141,168.305786 
	C678.565674,162.286423 677.675415,156.210754 676.655457,150.160095 
	C676.494080,149.202820 676.492188,148.154770 675.057190,147.290634 
	C673.140320,151.131882 671.240479,154.938950 669.201416,159.087479 
z"/>
<path fill="#000000" opacity="1.000000" stroke="none" 
	d="
M796.743652,239.725494 
	C799.631653,237.185471 802.228760,234.850571 804.883484,232.583176 
	C805.992188,231.636276 807.137634,230.364044 808.804932,231.532135 
	C810.251099,232.545334 810.255676,234.001282 809.869324,235.560349 
	C808.590149,240.721893 807.356079,245.894669 806.067200,251.053772 
	C805.677795,252.612778 804.751526,254.125168 806.025879,256.024597 
	C810.404541,253.815384 813.256653,249.785751 817.069885,246.985336 
	C818.430725,245.985977 819.863098,243.766251 821.619263,245.982056 
	C823.039246,247.773636 821.097107,248.940353 819.899597,250.019882 
	C815.207092,254.249924 810.547791,258.520050 805.749634,262.627502 
	C804.372803,263.806091 803.023560,266.061218 800.682556,264.539093 
	C798.525818,263.136871 799.429321,260.979370 799.887512,259.077057 
	C801.436401,252.645462 803.044495,246.228119 804.981812,238.380127 
	C800.220459,242.534744 796.492676,245.862732 792.671448,249.079758 
	C791.380188,250.166870 789.908508,252.317703 788.084778,250.325623 
	C786.217163,248.285736 788.571045,247.106003 789.788025,245.941666 
	C791.948242,243.874832 794.239502,241.945007 796.743652,239.725494 
z"/>
<path fill="#000000" opacity="1.000000" stroke="none" 
	d="
M389.206909,131.638702 
	C388.354370,129.057602 387.591553,126.858276 386.966949,124.620384 
	C386.673340,123.568436 387.072235,122.636589 388.181030,122.216568 
	C389.341705,121.776909 390.219940,122.348701 390.575043,123.353561 
	C393.285522,131.024094 395.935608,138.716064 398.579559,146.409912 
	C398.956909,147.508072 398.508270,148.370895 397.486450,148.871124 
	C395.924469,149.635788 394.578644,149.005066 393.321381,148.095016 
	C389.012970,144.976425 384.726440,141.827484 380.405426,138.726547 
	C379.081818,137.776688 377.674255,136.943848 375.154510,135.312439 
	C377.131592,141.267899 378.738525,146.042435 380.294434,150.833527 
	C380.789581,152.358276 381.830292,154.250992 379.385834,154.947617 
	C377.406097,155.511810 376.942108,153.677429 376.455414,152.292847 
	C374.141876,145.711197 371.862885,139.117340 369.594971,132.519775 
	C369.115784,131.125793 368.379547,129.644272 370.123383,128.530853 
	C371.647217,127.557907 373.011902,128.157578 374.271332,129.066193 
	C378.584381,132.177856 382.862610,135.337677 387.174316,138.451202 
	C388.601868,139.482040 389.816925,140.928986 392.300659,141.106873 
	C391.264069,137.905624 390.308655,134.955154 389.206909,131.638702 
z"/>
<path fill="#000000" opacity="1.000000" stroke="none" 
	d="
M180.199081,302.480103 
	C182.202652,302.123688 183.794525,301.811768 186.484726,301.284607 
	C181.339203,298.185852 176.982666,295.626068 172.701553,292.945862 
	C171.385635,292.122009 169.271896,291.289398 170.407089,289.218536 
	C171.758667,286.752930 173.501160,288.419189 175.008331,289.340118 
	C180.534271,292.716675 186.073898,296.072418 191.544632,299.536621 
	C192.971512,300.440186 195.412384,300.941071 194.728256,303.350464 
	C194.080597,305.631409 191.797470,305.866699 189.797073,305.971558 
	C186.149216,306.162811 182.492798,306.191559 178.839890,306.285645 
	C176.022797,306.358185 173.190720,306.327393 170.088898,307.683990 
	C173.678101,311.140808 177.995834,313.097260 181.884766,315.661682 
	C183.289810,316.588196 185.938248,317.284149 184.637131,319.547943 
	C183.142120,322.149048 181.073944,320.021301 179.531754,319.112183 
	C174.096695,315.908234 168.740646,312.567383 163.409775,309.191406 
	C162.092194,308.356995 160.042603,307.784424 160.474152,305.654907 
	C160.932877,303.391357 163.131821,303.213196 164.857773,303.095612 
	C169.824234,302.757263 174.809509,302.695160 180.199081,302.480103 
z"/>
<path fill="#000000" opacity="1.000000" stroke="none" 
	d="
M657.717407,832.392151 
	C658.567932,834.617432 659.318481,836.467651 659.930847,838.362488 
	C660.387512,839.775635 660.132629,841.122009 658.533813,841.589722 
	C657.117493,842.003906 656.418091,840.888367 655.954041,839.791626 
	C654.918518,837.344421 653.890137,834.889282 652.997498,832.387878 
	C652.118896,829.925964 650.833008,828.854492 648.119385,830.008911 
	C644.329163,831.621277 640.276611,832.630554 636.601013,834.966309 
	C637.178894,838.704285 638.821472,841.970398 640.081177,845.364075 
	C640.541931,846.605225 640.932373,848.083435 639.341858,848.857239 
	C637.413086,849.795776 636.573608,848.330505 636.019348,846.913696 
	C632.933289,839.024658 629.895935,831.116211 626.898438,823.193115 
	C626.438843,821.978149 625.930664,820.529419 627.595764,819.722778 
	C629.545654,818.778198 630.258057,820.221313 630.936768,821.620117 
	C631.081543,821.918579 631.171387,822.245361 631.330200,822.535217 
	C632.725708,825.080505 632.355835,829.807678 635.328857,829.970703 
	C639.850525,830.218567 644.135071,827.441345 648.336670,825.507385 
	C650.172791,824.662170 649.276917,822.930542 648.793884,821.539795 
	C648.085693,819.500793 647.332764,817.476990 646.575867,815.455261 
	C646.069946,814.104065 645.807434,812.791748 647.515808,812.144409 
	C649.177307,811.514893 649.966614,812.583618 650.495422,813.935242 
	C652.855164,819.966675 655.204773,826.002197 657.717407,832.392151 
z"/>
<path fill="#000000" opacity="1.000000" stroke="none" 
	d="
M241.703247,220.803986 
	C245.009689,224.505432 248.118149,227.973679 251.224365,231.443909 
	C252.158600,232.487595 253.005539,233.613007 251.719070,234.902725 
	C250.406433,236.218719 249.303497,235.382950 248.340607,234.324265 
	C243.303833,228.786392 238.266754,223.248688 233.258957,217.684662 
	C232.358566,216.684265 231.472824,215.546646 232.647324,214.178787 
	C233.751419,212.892944 235.157623,212.806046 236.743393,213.193481 
	C242.230499,214.534119 247.730728,215.821991 253.235565,217.088303 
	C254.777939,217.443100 256.353271,217.654587 258.924652,218.111496 
	C254.725922,213.414886 251.182114,209.503006 247.708160,205.530029 
	C246.786285,204.475754 245.137451,203.291473 246.660492,201.744766 
	C248.399017,199.979156 249.616287,201.627563 250.733719,202.858353 
	C255.318268,207.907806 259.899780,212.960159 264.454803,218.036224 
	C265.422577,219.114731 266.951874,220.165329 266.101440,221.860535 
	C265.058502,223.939423 263.010864,223.550842 261.234100,223.153595 
	C255.234772,221.812210 249.265640,220.336258 243.270462,218.975616 
	C242.129410,218.716629 240.173508,217.929474 241.703247,220.803986 
z"/>
<path fill="#000000" opacity="1.000000" stroke="none" 
	d="
M484.299988,846.167908 
	C483.678223,850.493469 485.323517,852.038818 489.267548,851.845825 
	C492.239410,851.700439 495.243927,852.067688 498.224091,852.321777 
	C499.404663,852.422485 500.645966,852.881592 500.600281,854.368103 
	C500.553223,855.900024 499.256134,856.175049 498.074280,856.137634 
	C495.420929,856.053589 492.773621,855.795837 490.121246,855.660278 
	C487.321747,855.517212 483.901154,853.910217 483.354034,858.838623 
	C482.710632,864.634399 483.355865,865.795532 488.805267,866.450012 
	C491.766449,866.805603 494.784515,866.664062 497.771759,866.836304 
	C499.267700,866.922546 501.106659,867.062744 500.937531,869.128052 
	C500.762695,871.263245 498.970428,870.844055 497.457581,870.752380 
	C492.812561,870.470703 488.165680,870.135437 483.515381,870.051514 
	C479.837891,869.985046 478.492157,868.309814 478.811615,864.735352 
	C479.506866,856.957031 480.147522,849.171387 480.623871,841.377258 
	C480.802460,838.455139 482.311249,837.667725 484.840454,837.838135 
	C489.811035,838.173035 494.782562,838.496155 499.749939,838.873718 
	C501.116821,838.977661 502.630432,839.321533 502.490265,841.070312 
	C502.350342,842.815674 500.844086,842.864685 499.446991,842.789856 
	C495.795685,842.594360 492.142914,842.425781 488.492737,842.212158 
	C485.952759,842.063599 484.215698,842.805054 484.299988,846.167908 
z"/>
<path fill="#000000" opacity="1.000000" stroke="none" 
	d="
M786.596130,209.063446 
	C791.065247,211.936844 793.971680,215.430450 793.627380,220.650299 
	C793.500183,222.578796 792.888123,225.151199 790.345459,224.796432 
	C787.751343,224.434464 788.666565,222.232162 789.093323,220.397812 
	C790.011047,216.453400 787.730286,214.140167 784.526367,212.603958 
	C782.924011,211.835709 781.209473,212.148697 779.968445,213.554535 
	C778.830261,214.843903 778.999390,216.361252 779.777832,217.745255 
	C781.243164,220.350616 782.890076,222.855301 784.316345,225.480698 
	C786.123230,228.806747 786.524658,232.133759 783.534058,235.081268 
	C780.656982,237.916733 777.285217,237.882095 773.841248,236.396851 
	C767.561768,233.688797 763.744446,226.631485 765.842468,221.620514 
	C766.528198,219.982727 767.326050,217.808472 769.710876,218.849487 
	C771.892090,219.801636 770.686951,221.512329 770.120483,223.093704 
	C768.648804,227.202286 772.574402,232.918900 776.947815,233.207550 
	C779.949280,233.405640 781.990051,230.844162 780.764832,227.945496 
	C779.675598,225.368423 778.010742,223.032333 776.574768,220.604782 
	C774.687988,217.415070 773.547180,214.090729 776.336975,210.936691 
	C779.025513,207.897079 782.431946,207.070450 786.596130,209.063446 
z"/>
<path fill="#000000" opacity="1.000000" stroke="none" 
	d="
M277.801636,783.098816 
	C279.708405,776.884949 273.653687,776.497009 271.368225,773.522766 
	C269.508820,771.102966 267.246826,772.674622 265.110901,773.689148 
	C262.876984,774.750366 260.573792,777.718323 258.030762,774.154175 
	C258.438385,771.702576 260.443268,771.327271 261.965851,770.507263 
	C269.119751,766.654297 276.312408,762.873413 283.479889,759.045593 
	C285.069824,758.196472 286.543915,756.873169 288.419037,758.511597 
	C290.152191,760.026123 289.639282,761.803223 289.065643,763.554199 
	C286.434662,771.584900 283.814117,779.619873 281.065704,787.610535 
	C280.589630,788.994568 280.497345,791.431274 278.119598,790.794189 
	C275.729187,790.153625 276.117157,788.138855 276.778259,786.286560 
	C277.112061,785.351257 277.406219,784.401855 277.801636,783.098816 
M281.446198,764.518921 
	C279.097809,766.462952 275.707794,766.956177 273.714478,769.790833 
	C275.629120,771.920837 277.247894,773.968018 280.156769,774.472961 
	C282.342041,771.599243 282.896973,768.273682 283.767944,765.126587 
	C284.272003,763.305237 282.881470,763.973206 281.446198,764.518921 
z"/>
<path fill="#000000" opacity="1.000000" stroke="none" 
	d="
M481.907166,131.974091 
	C478.264221,131.983994 478.814819,129.188522 478.275177,127.303192 
	C476.639404,121.588516 470.159027,119.183937 465.428009,122.617790 
	C464.101349,123.580688 464.298737,124.944626 464.406281,126.243568 
	C464.556946,128.063828 464.944489,129.866592 465.053741,131.687454 
	C465.131165,132.977493 464.506226,133.955276 463.045380,134.027405 
	C461.845734,134.086624 461.071167,133.331757 460.978729,132.282471 
	C460.278717,124.333580 458.534180,116.479095 458.776245,108.446815 
	C458.823730,106.869415 459.780975,106.009186 461.297455,105.861282 
	C465.431824,105.458069 469.582581,104.716064 473.705994,104.834503 
	C478.965729,104.985580 482.485901,109.831116 480.695953,114.567581 
	C479.573273,117.538391 479.965118,119.620148 481.183960,122.402359 
	C482.421021,125.226128 483.922180,128.477386 481.907166,131.974091 
M469.538208,117.757874 
	C470.199463,117.727676 470.867004,117.745232 471.520905,117.659164 
	C474.700165,117.240776 477.040222,115.716682 476.596588,112.227402 
	C476.130646,108.562660 473.213013,107.921417 470.221985,108.637062 
	C467.887848,109.195526 465.227295,108.548340 462.968414,110.418144 
	C463.408081,112.914444 462.675049,115.596001 464.262970,118.142815 
	C465.809235,118.021500 467.272919,117.906670 469.538208,117.757874 
z"/>
<path fill="#000000" opacity="1.000000" stroke="none" 
	d="
M425.267761,860.809937 
	C423.052002,859.894714 422.612427,858.221497 422.792847,856.546387 
	C423.487854,850.094360 418.535339,849.867310 414.363647,848.238159 
	C409.890900,846.491577 408.006805,848.934387 405.972351,851.993103 
	C404.707672,853.894470 403.346375,856.105896 400.213715,853.706970 
	C400.869080,850.641846 403.200592,848.644348 404.917450,846.327332 
	C409.178375,840.576965 413.515198,834.882324 417.869720,829.202209 
	C418.881500,827.882324 419.998901,826.529175 422.030884,827.321106 
	C423.679199,827.963440 424.062012,829.339600 424.239075,830.908508 
	C425.208069,839.494202 426.257507,848.071228 427.146240,856.664978 
	C427.299713,858.149048 427.953949,860.108826 425.267761,860.809937 
M414.762207,840.031677 
	C414.050598,841.061035 412.751770,841.851379 413.528534,843.861450 
	C415.869415,844.303406 418.149017,846.277832 421.337097,845.098206 
	C420.678040,841.333557 421.277863,837.634460 419.762573,833.577087 
	C417.971863,835.899414 416.580048,837.704468 414.762207,840.031677 
z"/>
<path fill="#000000" opacity="1.000000" stroke="none" 
	d="
M201.759003,261.720093 
	C214.553574,269.084045 215.607224,280.199341 204.791077,289.365143 
	C203.187378,290.724121 201.818130,290.497437 200.323990,289.375244 
	C194.468307,284.977356 188.602280,280.593170 182.761124,276.176056 
	C181.678558,275.357422 180.833099,274.442627 181.291092,272.810730 
	C183.533707,264.819916 193.332504,259.307495 201.759003,261.720093 
M208.527145,274.761475 
	C206.604996,268.753540 202.279922,264.926086 196.271591,264.575012 
	C191.014999,264.267883 188.682617,268.997406 186.140381,273.421875 
	C191.757416,277.603424 197.039551,281.535675 202.440506,285.556366 
	C205.610214,282.430908 207.621277,279.292053 208.527145,274.761475 
z"/>
<path fill="#000000" opacity="1.000000" stroke="none" 
	d="
M655.405273,148.182312 
	C649.698486,155.512146 642.160889,156.893112 635.630371,152.095062 
	C629.493774,147.586411 628.867920,138.123245 634.206238,130.562286 
	C638.393188,124.632095 646.326050,123.445648 652.777588,127.784752 
	C658.899658,131.902252 659.927551,139.210617 655.405273,148.182312 
M640.262817,130.485519 
	C637.126038,132.765076 635.515930,135.982483 634.705322,139.658951 
	C633.196777,146.500534 639.200012,152.347198 645.984802,150.672195 
	C651.439392,149.325592 655.406311,141.193542 653.570007,135.122604 
	C652.085754,130.215485 647.020996,128.196930 640.262817,130.485519 
z"/>
<path fill="#000000" opacity="1.000000" stroke="none" 
	d="
M533.977417,103.114815 
	C536.554810,103.339966 538.702271,103.563370 540.853577,103.739723 
	C549.199219,104.423859 553.538330,109.440453 553.252380,118.096153 
	C552.945984,127.374031 548.539124,132.098785 540.061096,132.235443 
	C539.395813,132.246170 538.730103,132.239426 538.064636,132.234650 
	C528.642822,132.167160 528.657837,132.135468 529.514038,122.808777 
	C529.999878,117.515846 530.337830,112.208183 530.664307,106.902351 
	C530.786194,104.922050 531.041138,103.194855 533.977417,103.114815 
M539.323669,107.323135 
	C537.129883,107.305359 534.730408,107.116508 534.436218,110.161774 
	C533.975037,114.935768 533.683105,119.726143 533.322144,124.509773 
	C533.117920,127.214729 534.475464,128.347580 537.084534,128.650742 
	C543.253479,129.367538 547.696533,126.569687 548.657898,121.166687 
	C550.172485,112.655212 548.115356,109.324005 539.323669,107.323135 
z"/>
<path fill="#000000" opacity="1.000000" stroke="none" 
	d="
M307.522278,168.392822 
	C303.691528,166.490143 300.180298,165.333527 296.693634,168.477051 
	C294.994904,170.008545 293.651642,171.720184 294.992798,174.114471 
	C296.283234,176.418182 298.190033,176.590302 300.555481,175.697052 
	C303.349243,174.642059 306.200958,173.599396 309.121429,173.052765 
	C314.017273,172.136414 318.236023,175.664703 318.161194,180.567520 
	C318.084656,185.582809 314.578644,188.224228 310.566895,190.213562 
	C306.807068,192.077942 302.943268,192.761505 299.338409,189.788071 
	C298.224030,188.868912 296.617401,187.798279 297.682373,186.116638 
	C298.964691,184.091797 300.500854,185.191101 301.864960,186.318848 
	C304.076050,188.146835 306.479645,188.076385 308.860229,186.796448 
	C311.746735,185.244492 314.781982,183.202820 313.474609,179.518372 
	C312.050537,175.505020 308.573822,177.348267 305.780609,178.077576 
	C303.690063,178.623413 301.680389,179.515961 299.572083,179.949921 
	C294.390564,181.016449 290.716156,177.912125 290.712372,172.623672 
	C290.709381,168.426804 293.138885,165.843674 296.602875,164.086624 
	C300.220337,162.251770 303.976257,161.840240 307.524261,164.176270 
	C309.124084,165.229599 310.523285,166.747345 307.522278,168.392822 
z"/>
<path fill="#000000" opacity="1.000000" stroke="none" 
	d="
M230.604324,234.265228 
	C235.093628,238.429977 238.144745,242.869781 236.589844,249.002335 
	C235.081451,254.951599 230.222076,258.982544 224.521194,259.270172 
	C218.078720,259.595184 211.366455,255.113831 208.903656,248.843262 
	C206.639023,243.077271 208.289612,237.112289 213.225723,233.224060 
	C217.965485,229.490448 223.715439,229.763840 230.604324,234.265228 
M228.497955,254.173264 
	C232.073410,251.661835 234.023514,248.440689 232.650223,243.967010 
	C231.142212,239.054504 225.659943,234.504974 220.971039,234.399384 
	C216.592926,234.300781 213.999512,236.998215 212.227371,240.658615 
	C210.173843,244.900238 212.512329,248.203262 215.102966,250.945648 
	C218.482819,254.523514 222.472748,257.388092 228.497955,254.173264 
z"/>
<path fill="#000000" opacity="1.000000" stroke="none" 
	d="
M261.201477,190.845398 
	C264.466919,185.520737 270.018829,183.187988 274.397156,179.448822 
	C275.185699,178.775375 276.260864,178.546188 277.092865,179.454224 
	C278.183136,180.644104 277.451630,181.635025 276.487976,182.403625 
	C274.276154,184.167709 272.119263,186.039322 269.731812,187.534836 
	C266.722900,189.419617 266.020111,191.189484 268.373932,194.311386 
	C270.976318,197.762955 272.833923,195.655838 274.949799,194.085800 
	C276.687500,192.796402 278.351562,191.402695 280.134979,190.181885 
	C281.180847,189.465912 282.499725,188.338470 283.632355,189.823013 
	C284.745728,191.282318 283.405365,192.258682 282.396454,193.100327 
	C279.603760,195.430054 276.318451,197.165680 273.956848,199.952545 
	C276.936493,207.514313 278.016510,207.840149 284.376770,203.166870 
	C286.120117,201.885925 287.803070,200.519943 289.580444,199.289368 
	C290.590393,198.590134 291.780304,198.233826 292.628540,199.542740 
	C293.316833,200.604874 292.685425,201.479431 291.853455,202.108322 
	C287.737549,205.219498 283.636627,208.353912 279.438782,211.351868 
	C277.272705,212.898773 276.068726,211.053818 274.984955,209.613556 
	C270.382812,203.497681 265.841522,197.336029 261.201477,190.845398 
z"/>
<path fill="#000000" opacity="1.000000" stroke="none" 
	d="
M520.720154,776.805054 
	C524.324890,772.304626 528.594177,769.158569 533.187622,766.413635 
	C534.491211,765.634583 535.979431,764.737854 537.110596,766.491394 
	C538.332397,768.385559 537.104248,769.485535 535.507324,770.450500 
	C529.949646,773.808655 524.856873,777.647400 521.924805,783.795227 
	C524.016357,785.435303 526.093689,784.521973 527.979187,784.833313 
	C529.504089,785.085205 531.127808,785.172852 531.035706,787.273621 
	C530.956909,789.069946 529.519836,789.205933 528.151550,789.289795 
	C527.488281,789.330505 526.821777,789.318970 526.156738,789.331177 
	C519.289368,789.456848 517.650818,791.271912 518.784729,798.036072 
	C519.275085,800.960999 520.268188,803.807678 521.123230,806.662903 
	C521.573730,808.167236 522.161743,809.632263 520.091125,810.339661 
	C518.125183,811.011414 517.380981,809.619202 516.807129,808.176941 
	C512.421570,797.153809 513.220825,786.735107 520.720154,776.805054 
z"/>
<path fill="#000000" opacity="1.000000" stroke="none" 
	d="
M872.979126,326.137268 
	C869.913757,327.805176 867.127625,329.256012 863.913025,330.930054 
	C869.244629,336.203125 878.258057,334.975159 883.240967,342.213104 
	C878.713196,342.831299 875.957947,341.027802 873.267883,339.744202 
	C868.973389,337.694916 866.464722,338.156586 864.485657,342.959717 
	C862.834106,346.967926 861.362610,351.275970 858.238403,354.700562 
	C855.429504,353.136627 855.907532,351.176666 856.927795,349.085815 
	C858.386292,346.097168 859.898621,343.131592 861.244812,340.092773 
	C861.868347,338.685242 863.439880,337.095581 861.709473,335.598846 
	C860.306091,334.384979 858.440491,333.843201 856.559509,334.542053 
	C854.849182,335.177490 853.220886,336.030823 851.542847,336.756714 
	C850.390991,337.254944 849.182495,337.388214 848.446777,336.165314 
	C847.460632,334.526031 848.732300,333.659729 849.921997,333.068237 
	C856.768311,329.664368 863.586914,326.191193 870.555603,323.054230 
	C872.899902,321.998962 874.744629,322.707855 872.979126,326.137268 
z"/>
<path fill="#000000" opacity="1.000000" stroke="none" 
	d="
M834.497559,313.191254 
	C830.942444,304.228088 835.054626,296.297852 844.570862,293.068054 
	C852.317566,290.438843 859.710327,294.214264 861.826843,301.959625 
	C862.740601,305.303436 862.596741,308.581299 860.409912,311.482910 
	C859.711548,312.409454 858.858398,313.440887 857.513428,312.657715 
	C856.315125,311.959900 856.403870,310.836212 856.742004,309.588989 
	C858.727539,302.266998 857.358459,298.293732 852.368225,296.642609 
	C847.420288,295.005463 839.773865,298.942932 837.539307,304.278564 
	C835.029114,310.272186 839.440552,316.018341 846.263000,315.660370 
	C847.948303,315.571899 850.473694,314.318207 850.708557,317.076508 
	C850.945007,319.854095 847.970215,319.726257 846.239929,319.841675 
	C841.179443,320.179108 837.191589,318.097260 834.497559,313.191254 
z"/>
<path fill="#000000" opacity="1.000000" stroke="none" 
	d="
M825.934692,291.885925 
	C824.886108,293.263550 824.001343,294.521271 822.561707,293.047241 
	C821.242432,291.696503 821.769104,290.070953 822.785217,288.970276 
	C826.282898,285.181366 825.019775,282.085175 822.119385,278.584259 
	C820.040588,276.075073 818.209473,274.898743 814.929321,276.070953 
	C812.965942,276.772614 810.332397,277.976959 809.118042,274.320648 
	C812.647705,271.748352 816.894958,271.512085 820.817444,270.401245 
	C825.139709,269.177185 829.494263,268.062744 833.854126,266.978271 
	C835.584717,266.547821 837.496948,265.700623 838.933044,267.556458 
	C840.389099,269.438293 839.080627,271.005920 838.113159,272.547668 
	C834.128174,278.897736 830.127686,285.238068 825.934692,291.885925 
M825.431152,273.250214 
	C822.765869,276.862732 826.733521,277.431885 827.895264,279.633820 
	C830.454773,277.290985 832.020874,274.941193 833.253967,271.346100 
	C830.406067,272.020660 828.230652,272.535950 825.431152,273.250214 
z"/>
<path fill="#000000" opacity="1.000000" stroke="none" 
	d="
M735.667358,758.937561 
	C740.532288,759.020386 743.760681,762.185974 747.558228,764.085083 
	C751.550781,766.081787 755.467896,768.229370 760.592102,770.929688 
	C757.467529,762.952026 754.779358,756.064697 752.069641,749.185730 
	C751.338623,747.329956 750.047363,745.144775 752.697632,744.071167 
	C755.422302,742.967346 755.449280,745.845581 756.020996,747.296997 
	C759.064758,755.023987 761.966370,762.807617 764.855164,770.594604 
	C765.475769,772.267700 766.395630,774.118774 764.600342,775.655823 
	C762.875610,777.132507 761.175537,776.237488 759.528320,775.353699 
	C751.913940,771.268372 744.283142,767.213440 736.698120,763.074280 
	C735.163330,762.236755 732.980286,761.352478 735.667358,758.937561 
z"/>
<path fill="#000000" opacity="1.000000" stroke="none" 
	d="
M642.960449,619.253418 
	C645.157471,611.766968 649.473389,605.880005 654.631897,599.151550 
	C648.861938,599.151550 644.268005,599.206848 639.676697,599.123047 
	C637.945801,599.091431 635.541626,599.471313 635.665344,596.700806 
	C635.773315,594.281860 637.985718,594.756714 639.549683,594.737061 
	C645.045288,594.667847 650.542419,594.664795 656.038330,594.711914 
	C657.466309,594.724121 659.203857,594.329102 659.962952,596.111145 
	C660.716003,597.878845 659.877747,599.398743 658.741577,600.672241 
	C654.707703,605.193481 651.583069,610.277222 649.229553,615.838562 
	C647.604187,619.679321 646.268494,623.592896 646.037354,627.832947 
	C645.923035,629.930420 645.945129,632.769958 642.730164,632.210388 
	C639.421082,631.634460 640.857910,628.840515 641.140625,626.915344 
	C641.501221,624.459229 642.256897,622.061096 642.960449,619.253418 
z"/>
<path fill="#000000" opacity="1.000000" stroke="none" 
	d="
M714.949463,159.520599 
	C718.197693,158.141464 720.251160,159.169205 719.836853,162.249603 
	C718.686768,170.800476 717.099426,179.292969 715.635498,187.800018 
	C715.565796,188.204956 715.021729,188.528275 714.544678,189.061661 
	C711.343079,188.260208 711.565552,185.938873 712.310181,183.678482 
	C713.651978,179.605209 711.043030,178.016037 708.198425,176.299850 
	C705.395569,174.608841 702.889282,172.939667 699.879517,176.118958 
	C698.290588,177.797348 696.234314,179.846375 693.143066,176.605118 
	C700.004822,170.334824 707.409485,165.147934 714.949463,159.520599 
M708.869263,169.091400 
	C706.598633,174.134048 711.059509,172.887558 713.091187,174.174057 
	C714.884888,169.344421 714.884888,169.344421 714.481567,164.746506 
	C712.695618,166.110840 711.025269,167.386841 708.869263,169.091400 
z"/>
<path fill="#000000" opacity="1.000000" stroke="none" 
	d="
M514.324280,119.783035 
	C515.421326,122.436226 516.456726,124.703842 517.329895,127.032303 
	C517.820618,128.341034 518.885071,130.008972 516.849976,130.876892 
	C515.042786,131.647644 513.870178,130.265793 513.506653,128.802322 
	C512.232239,123.672676 508.812103,122.786484 504.110840,123.103226 
	C500.998901,123.312881 499.184387,124.302818 498.227478,127.274651 
	C497.561279,129.343765 497.068573,132.019684 493.620911,131.012665 
	C492.655487,128.445480 494.176392,126.416435 494.935425,124.359558 
	C497.232208,118.135536 499.738403,111.988373 502.197205,105.824890 
	C502.755707,104.424850 503.414154,103.003372 505.247772,102.959114 
	C507.065521,102.915222 507.829010,104.221565 508.428680,105.645950 
	C510.360443,110.234184 512.274170,114.830009 514.324280,119.783035 
M505.978088,110.727211 
	C503.006226,112.993095 502.290771,114.694656 502.468353,119.074554 
	C508.750458,120.010231 509.490479,119.149826 507.290894,113.450737 
	C506.994080,112.681755 506.652802,111.929939 505.978088,110.727211 
z"/>
<path fill="#000000" opacity="1.000000" stroke="none" 
	d="
M347.353210,168.628830 
	C344.064240,169.953674 344.114258,167.641251 343.984283,165.902756 
	C343.389343,157.945251 343.996429,149.954956 343.251038,141.980667 
	C342.970825,138.982971 345.709503,137.269974 347.814117,139.427628 
	C354.269592,146.045731 360.176056,153.199326 366.530945,160.411377 
	C365.831451,161.335876 364.058350,161.124573 362.592072,159.232803 
	C359.801117,155.632050 356.947235,155.390625 352.722351,157.241623 
	C348.341217,159.161041 347.837524,162.067078 348.172974,165.968369 
	C348.239532,166.743073 347.825287,167.559128 347.353210,168.628830 
M347.306122,148.272064 
	C347.584625,150.312439 346.650726,152.564850 348.330688,154.454849 
	C350.647827,154.482117 352.432892,153.543900 353.986725,151.847458 
	C353.194519,149.229782 351.008270,147.883423 349.165924,146.346420 
	C347.960632,145.340897 347.519135,146.505325 347.306122,148.272064 
z"/>
<path fill="#000000" opacity="1.000000" stroke="none" 
	d="
M561.338562,608.114197 
	C560.655762,603.808594 557.489624,605.641296 555.340271,605.163208 
	C553.918518,604.847107 552.054932,605.089233 552.028748,603.005432 
	C552.006958,601.275024 553.635742,601.006348 554.923401,600.928833 
	C558.267639,600.727539 560.569946,599.279480 561.662109,596.023987 
	C562.066589,594.818298 562.918762,594.013367 564.296326,594.291321 
	C565.666382,594.567688 566.120850,595.679993 566.122803,596.906616 
	C566.139954,607.694031 566.139954,618.481445 566.090027,629.268677 
	C566.082458,630.890259 565.469177,632.289795 563.475159,632.153076 
	C561.499329,632.017517 561.134644,630.462402 561.137451,628.924805 
	C561.149902,622.122498 561.249023,615.320435 561.338562,608.114197 
z"/>
<path fill="#000000" opacity="1.000000" stroke="none" 
	d="
M608.831787,830.517090 
	C610.615051,838.067749 612.541077,845.283447 614.424500,852.510315 
	C614.824036,854.043335 615.897888,855.968384 613.656372,856.818787 
	C610.912415,857.859619 610.724792,855.310120 610.260071,853.721130 
	C608.487366,847.659790 606.719727,841.588562 605.259705,835.447388 
	C604.414734,831.893494 602.864075,830.536011 599.311157,832.057312 
	C598.256165,832.508972 597.064026,832.653992 595.924500,832.890503 
	C594.861084,833.111267 593.892883,832.912842 593.443176,831.803345 
	C592.829712,830.289856 593.930603,829.539917 595.031311,829.221375 
	C601.575745,827.327454 608.145081,825.518250 614.723328,823.744629 
	C615.886292,823.431091 617.192627,823.519043 617.622437,824.937683 
	C618.066162,826.401733 616.950012,826.921875 615.810303,827.418884 
	C613.550720,828.404114 610.857117,828.315491 608.831787,830.517090 
z"/>
<path fill="#000000" opacity="1.000000" stroke="none" 
	d="
M706.492310,813.273682 
	C708.408020,812.519958 710.264221,810.573059 711.539856,813.009033 
	C712.629028,815.088928 710.337036,815.776794 709.004272,816.561584 
	C705.280396,818.754150 701.431335,820.737122 697.738647,822.978943 
	C695.249756,824.489868 693.570190,824.289673 692.078125,821.599976 
	C688.207520,814.622681 684.155518,807.746155 680.241150,800.792725 
	C679.475891,799.433472 677.981384,797.721741 680.019287,796.437378 
	C682.377197,794.951233 683.218994,797.275452 684.089966,798.750671 
	C687.217224,804.047058 690.437744,809.304626 693.226440,814.778931 
	C695.124329,818.504578 697.237854,819.154175 700.594604,816.777344 
	C702.352112,815.532898 704.304443,814.563660 706.492310,813.273682 
z"/>
<path fill="#000000" opacity="1.000000" stroke="none" 
	d="
M349.228638,611.002380 
	C349.231812,617.137390 349.265167,622.773132 349.218994,628.408264 
	C349.205658,630.035522 349.333374,631.981201 346.956940,632.122314 
	C344.315704,632.279053 344.131531,630.268127 344.125885,628.400085 
	C344.094421,617.958252 344.113068,607.516235 344.139069,597.074280 
	C344.143463,595.312195 344.463348,593.646912 346.744232,593.615295 
	C349.147766,593.581970 349.221008,595.365723 349.229584,597.077087 
	C349.251953,601.552246 349.231781,606.027649 349.228638,611.002380 
z"/>
<path fill="#000000" opacity="1.000000" stroke="none" 
	d="
M740.187073,203.659943 
	C740.558350,205.145981 740.140747,206.030746 738.903320,206.022110 
	C738.137207,206.016769 737.328735,205.594772 736.617310,205.213943 
	C723.056580,197.954254 722.825012,197.012253 731.444641,184.553223 
	C733.430298,181.683060 735.333496,178.751022 737.430420,175.964722 
	C738.432251,174.633514 739.399292,172.141922 741.603149,173.682709 
	C744.112183,175.436859 741.855286,177.232773 740.831360,178.732025 
	C738.020447,182.848083 735.186462,186.960434 732.122253,190.887512 
	C729.736511,193.944962 730.076782,196.157028 733.282532,198.267975 
	C735.629761,199.813644 737.788025,201.646378 740.187073,203.659943 
z"/>
<path fill="#000000" opacity="1.000000" stroke="none" 
	d="
M587.869751,113.515839 
	C585.989868,113.123001 584.282959,112.756538 584.876526,110.693298 
	C585.392029,108.901398 587.109741,109.456741 588.268005,109.831512 
	C594.313721,111.787682 600.894897,111.863754 606.910889,114.555946 
	C606.145142,117.714775 604.272949,117.415382 602.546936,116.797829 
	C598.434998,115.326591 596.792908,117.182037 596.055237,121.009186 
	C595.083740,126.048965 593.879822,131.046036 592.679626,136.038361 
	C592.312378,137.566071 592.152954,139.743179 589.761536,139.220825 
	C587.288696,138.680649 588.237610,136.720642 588.583862,135.162186 
	C589.698181,130.146881 590.599670,125.066139 592.056335,120.150871 
	C593.210449,116.256706 592.524231,114.026222 587.869751,113.515839 
z"/>
<path fill="#000000" opacity="1.000000" stroke="none" 
	d="
M425.865997,115.414307 
	C422.581238,113.989952 423.698151,112.445572 425.794647,111.938507 
	C431.431885,110.575066 437.169159,109.624001 442.869263,108.522552 
	C444.102570,108.284248 445.389557,108.375694 445.680634,109.812851 
	C446.034851,111.562004 444.639771,112.234901 443.272247,112.296867 
	C437.232605,112.570526 437.103210,116.010437 438.344360,120.670692 
	C439.494720,124.989998 440.241730,129.421692 441.042847,133.826355 
	C441.325104,135.378372 441.945312,137.558517 439.599426,137.887497 
	C437.411865,138.194275 437.158356,136.037613 436.851990,134.433945 
	C436.011871,130.036758 435.347656,125.604591 434.444183,121.221230 
	C433.075226,114.579498 433.014313,114.592056 425.865997,115.414307 
z"/>
<path fill="#000000" opacity="1.000000" stroke="none" 
	d="
M475.679321,703.242859 
	C473.538422,701.123291 471.624786,699.266785 469.753967,697.367981 
	C468.652405,696.249939 467.632690,695.049805 469.315704,693.596924 
	C470.598755,692.489502 471.758636,692.894226 472.826141,693.967285 
	C475.762970,696.919495 478.756714,699.818298 481.607697,702.851318 
	C483.073029,704.410156 483.415710,706.433472 482.767883,708.471497 
	C481.401611,712.769409 482.323334,716.234375 485.942780,719.104004 
	C487.248383,720.139160 489.280731,721.759888 487.308807,723.602112 
	C485.492065,725.299255 484.035065,723.300720 482.652924,722.185486 
	C478.480255,718.818420 475.841797,714.891357 477.823822,709.221008 
	C478.653137,706.848328 477.728516,705.011536 475.679321,703.242859 
z"/>
<path fill="#000000" opacity="1.000000" stroke="none" 
	d="
M538.086548,719.195190 
	C541.568665,716.361572 543.164490,713.497070 541.839294,709.028259 
	C540.134216,703.277893 544.857971,700.284119 548.310486,697.091248 
	C550.111816,695.425415 551.901855,690.934753 554.784790,693.840210 
	C557.593323,696.670593 553.180115,698.512207 551.471558,700.183289 
	C547.848450,703.727112 544.941040,706.992676 546.927917,712.710693 
	C548.014404,715.837524 541.966675,723.589966 538.793640,724.115051 
	C537.902710,724.262512 537.062988,724.133057 536.592957,723.353516 
	C535.559875,721.640198 536.929443,720.605713 538.086548,719.195190 
z"/>
<path fill="#000000" opacity="1.000000" stroke="none" 
	d="
M565.773193,715.792419 
	C568.133240,713.716431 569.648499,711.195618 572.352722,710.053284 
	C574.090332,710.854553 575.267578,711.876831 574.384583,713.914978 
	C571.130005,721.427429 560.901367,726.396423 552.759583,724.466187 
	C551.126587,724.078979 549.004028,723.827515 549.355164,721.678528 
	C549.762451,719.185974 552.100708,719.485168 553.790649,720.067078 
	C558.831543,721.803040 562.481384,719.921021 565.773193,715.792419 
z"/>
<path fill="#000000" opacity="1.000000" stroke="none" 
	d="
M525.015991,733.054443 
	C528.957092,729.042725 530.454468,724.925720 529.403564,719.359314 
	C528.509277,714.622925 533.105774,712.320251 536.054382,709.515198 
	C536.882202,708.727722 537.943604,709.174927 538.712585,709.972534 
	C539.723999,711.021545 539.642517,712.270142 538.610229,713.041016 
	C534.081909,716.422424 533.652893,720.767334 534.821655,725.910217 
	C535.397461,728.443970 530.163757,734.909363 527.732056,735.488647 
	C525.987549,735.904236 525.343140,734.825439 525.015991,733.054443 
z"/>
<path fill="#000000" opacity="1.000000" stroke="none" 
	d="
M567.164795,684.391235 
	C563.201538,687.934387 561.130310,691.548035 562.889343,696.891052 
	C563.848083,699.803345 559.401489,705.959839 556.320129,707.229553 
	C555.238586,707.675171 554.384033,707.535217 553.646118,706.695740 
	C552.706238,705.626465 552.782654,704.337769 553.814758,703.602112 
	C558.239258,700.448669 558.649414,696.418152 557.411865,691.460632 
	C556.700928,688.612610 561.707520,682.021179 564.429749,681.386414 
	C566.546570,680.892883 567.578979,681.876526 567.164795,684.391235 
z"/>
<path fill="#000000" opacity="1.000000" stroke="none" 
	d="
M496.913940,735.695068 
	C491.275330,732.168152 488.176025,727.662231 490.029022,721.002625 
	C490.942169,717.720947 488.548370,716.205261 486.731598,714.324036 
	C485.446198,712.993103 483.883606,711.532043 485.959534,709.750000 
	C487.857056,708.121277 488.855347,710.087585 490.065247,711.090698 
	C494.057190,714.400269 496.494385,718.155029 494.484283,723.663879 
	C493.392761,726.655334 495.436981,728.635803 497.423279,730.516907 
	C499.281067,732.276245 500.915924,734.113281 496.913940,735.695068 
z"/>
<path fill="#000000" opacity="1.000000" stroke="none" 
	d="
M457.673584,681.883484 
	C462.615417,681.977051 467.751770,687.400452 466.859955,691.838928 
	C465.930450,696.465271 466.091431,700.294495 470.182343,703.317810 
	C471.306183,704.148376 471.868591,705.477112 470.653412,706.760193 
	C469.518860,707.958130 468.313232,707.729980 467.152100,706.707581 
	C463.726318,703.691101 460.177643,700.574097 461.802979,695.368774 
	C462.962982,691.653687 462.034851,689.060303 459.135651,686.697327 
	C457.827118,685.630798 456.051880,684.374268 457.673584,681.883484 
z"/>
<path fill="#000000" opacity="1.000000" stroke="none" 
	d="
M579.729370,836.492310 
	C579.543457,834.487671 578.918152,832.478271 581.424194,832.247620 
	C583.441528,832.062073 583.711060,833.983154 584.002441,835.355408 
	C585.692932,843.317383 587.273376,851.302856 588.878357,859.282837 
	C589.182312,860.794678 589.459351,862.495850 587.479431,862.960083 
	C585.475403,863.429871 585.016113,861.826538 584.692322,860.274902 
	C583.064148,852.473633 581.425110,844.674622 579.729370,836.492310 
z"/>
<path fill="#000000" opacity="1.000000" stroke="none" 
	d="
M456.057434,720.000122 
	C454.158997,718.104675 452.512878,716.462952 450.878143,714.809937 
	C449.702850,713.621521 449.087036,712.370789 450.570160,710.967102 
	C451.895050,709.713196 452.972809,710.412903 453.997681,711.423340 
	C455.416595,712.822266 456.971313,714.112732 458.216797,715.652710 
	C461.543091,719.765320 465.398407,721.853516 470.817017,719.973145 
	C472.335663,719.446106 474.482056,719.380371 474.873474,721.575073 
	C475.270020,723.798157 473.262268,724.102295 471.611603,724.459045 
	C465.777344,725.719971 460.337006,725.564758 456.057434,720.000122 
z"/>
<path fill="#000000" opacity="1.000000" stroke="none" 
	d="
M320.592712,156.279190 
	C319.834320,154.377060 317.796783,152.564301 320.321960,151.268143 
	C322.764282,150.014542 323.356964,152.580246 324.170990,154.042633 
	C327.329010,159.716034 330.419830,165.428574 333.420471,171.186584 
	C334.196350,172.675385 335.932770,174.647354 333.639984,175.968262 
	C331.307159,177.312210 330.537170,174.881470 329.707489,173.356445 
	C326.683502,167.798157 323.740265,162.195938 320.592712,156.279190 
z"/>
<path fill="#000000" opacity="1.000000" stroke="none" 
	d="
M164.383667,326.571960 
	C168.110352,328.457581 171.519974,330.146149 174.874435,331.937988 
	C176.020187,332.550018 177.378296,333.325897 176.524414,334.993744 
	C175.727203,336.550842 174.350494,336.273499 173.092621,335.632996 
	C166.313461,332.181122 159.542297,328.713074 152.795685,325.198212 
	C151.745483,324.651062 150.830048,323.771271 151.445236,322.398254 
	C152.182419,320.752930 153.491119,320.991302 154.780853,321.644897 
	C157.879105,323.214905 160.958191,324.822754 164.383667,326.571960 
z"/>
<path fill="#000000" opacity="1.000000" stroke="none" 
	d="
M539.859497,736.510376 
	C537.902222,735.916016 536.535645,735.185669 537.303162,733.263000 
	C537.895020,731.780518 539.470459,731.499268 540.699280,731.941650 
	C546.430908,734.005127 550.566345,731.801575 554.179626,727.475586 
	C555.204651,726.248413 556.885925,724.998596 558.441772,726.688782 
	C559.975220,728.354492 558.380432,729.657349 557.403442,730.973328 
	C553.011108,736.889648 547.221558,738.498962 539.859497,736.510376 
z"/>
<path fill="#000000" opacity="1.000000" stroke="none" 
	d="
M617.772766,121.032639 
	C618.463806,119.089249 619.008423,117.150154 621.230774,118.101624 
	C623.065002,118.886902 622.315002,120.606537 621.915955,122.019272 
	C620.026245,128.708588 618.134583,135.397461 616.200562,142.074051 
	C615.790894,143.488174 615.341248,145.295700 613.365479,144.771652 
	C611.370850,144.242584 611.890991,142.510986 612.292786,141.046646 
	C614.087769,134.504562 615.892334,127.965088 617.772766,121.032639 
z"/>
<path fill="#000000" opacity="1.000000" stroke="none" 
	d="
M566.561035,118.683075 
	C567.023010,115.305519 567.402649,112.355408 567.851562,109.415878 
	C568.042053,108.168541 568.684937,107.121841 570.111694,107.304596 
	C571.480103,107.479881 572.049683,108.553185 571.855774,109.856056 
	C570.711426,117.546700 569.531067,125.232056 568.335510,132.914963 
	C568.143677,134.147766 567.599548,135.211823 566.094727,134.996078 
	C564.589172,134.780243 564.344482,133.562561 564.511963,132.361633 
	C565.128845,127.939308 565.834534,123.529381 566.561035,118.683075 
z"/>
<path fill="#000000" opacity="1.000000" stroke="none" 
	d="
M545.241272,739.738403 
	C545.648865,745.582825 541.202820,747.462402 537.347046,749.144531 
	C534.182617,750.525024 530.458008,749.519958 527.048462,748.771729 
	C525.700195,748.475830 524.565552,747.561646 524.951233,745.901489 
	C525.274109,744.511719 526.462402,744.089661 527.676819,744.381714 
	C533.334961,745.742371 538.143005,744.705811 541.855225,739.881836 
	C542.588623,738.928711 543.816833,738.643433 545.241272,739.738403 
z"/>
<path fill="#000000" opacity="1.000000" stroke="none" 
	d="
M469.726807,727.126709 
	C473.461792,731.844177 477.664825,734.012024 483.426147,732.022827 
	C484.828674,731.538574 486.627625,731.626526 487.117188,733.518311 
	C487.726868,735.874268 485.806976,736.129761 484.178894,736.578308 
	C476.837830,738.600952 470.878113,736.474243 466.338501,730.193726 
	C465.648743,729.239441 464.772400,728.267883 465.604462,727.077820 
	C466.727997,725.470886 468.109436,725.816833 469.726807,727.126709 
z"/>
<path fill="#000000" opacity="1.000000" stroke="none" 
	d="
M442.566528,706.951172 
	C440.339325,704.876282 438.381348,703.075317 436.587830,701.123413 
	C435.633057,700.084229 435.257538,698.717712 436.527954,697.587646 
	C437.648132,696.591309 438.896057,697.139709 439.612061,698.050049 
	C443.626038,703.153870 448.619843,704.998718 454.963837,703.228516 
	C456.122589,702.905151 457.297211,703.625671 457.531494,705.013916 
	C457.779236,706.481995 456.739594,707.094971 455.552124,707.425903 
	C451.315094,708.606628 447.083435,708.994751 442.566528,706.951172 
z"/>
<path fill="#000000" opacity="1.000000" stroke="none" 
	d="
M589.157532,678.510132 
	C589.289917,682.170654 586.312561,683.415039 584.473267,685.402832 
	C581.427673,688.694519 578.164978,691.787537 574.946594,694.915710 
	C574.086365,695.751892 573.005371,696.342102 571.838928,695.412659 
	C570.740784,694.537659 570.613525,693.305542 571.498901,692.336792 
	C576.202271,687.190002 580.963623,682.088135 586.366882,677.655579 
	C587.202698,676.969849 588.274109,677.377625 589.157532,678.510132 
z"/>
<path fill="#000000" opacity="1.000000" stroke="none" 
	d="
M586.451416,702.461548 
	C581.845154,708.646606 575.960327,709.355103 569.376953,707.641541 
	C567.877075,707.251160 566.309875,706.697632 566.832764,704.715759 
	C567.263000,703.084961 568.728882,703.075928 570.098145,703.386536 
	C575.559265,704.625183 580.180542,703.609985 583.687622,698.830627 
	C584.606628,697.578308 586.227417,696.100586 587.873352,697.671326 
	C589.833679,699.542053 587.840637,700.870361 586.451416,702.461548 
z"/>
<path fill="#000000" opacity="1.000000" stroke="none" 
	d="
M486.007019,743.265625 
	C489.127228,745.744934 492.324371,744.702209 495.401978,744.466797 
	C497.081451,744.338379 499.095764,743.783142 499.490234,745.975098 
	C499.938843,748.467712 497.618561,748.775330 495.882324,749.102173 
	C489.658264,750.273804 483.988617,749.653137 479.983368,743.892822 
	C479.072754,742.583252 477.224274,741.514160 479.002167,739.740356 
	C480.681061,738.065186 481.991241,739.420288 483.221924,740.584839 
	C484.064728,741.382263 484.888977,742.199280 486.007019,743.265625 
z"/>
<path fill="#000000" opacity="1.000000" stroke="none" 
	d="
M443.621094,689.386230 
	C441.033386,686.800171 438.671661,684.489075 436.379547,682.110962 
	C435.346008,681.038635 434.119781,679.728638 435.452759,678.259399 
	C436.701172,676.883423 438.185730,677.501831 439.357727,678.664368 
	C443.579193,682.851746 447.793213,687.046936 451.972565,691.276245 
	C453.082275,692.399292 453.855286,693.848145 452.605621,695.219910 
	C451.176361,696.788696 449.886566,695.506836 448.809235,694.509094 
	C447.113800,692.938843 445.515076,691.264282 443.621094,689.386230 
z"/>
<path fill="#000000" opacity="1.000000" stroke="none" 
	d="
M521.154419,632.098145 
	C518.092590,631.775146 518.064026,630.170715 519.135620,628.302124 
	C519.801758,627.140686 521.147034,625.966370 522.266235,627.214111 
	C523.655212,628.762634 523.899902,630.765991 521.154419,632.098145 
z"/>
<path fill="#000000" opacity="1.000000" stroke="none" 
	d="
M514.701721,300.044952 
	C514.418884,298.341980 514.124023,297.029816 514.097046,295.712158 
	C514.076111,294.693359 514.589905,293.753571 515.545410,293.242615 
	C516.898438,292.519073 518.489319,292.603668 518.963257,294.039062 
	C519.958984,297.054626 522.466309,300.154755 520.302429,303.365631 
	C519.181519,305.028931 517.245667,303.890778 516.039307,302.582520 
	C515.493164,301.990295 515.208374,301.157227 514.701721,300.044952 
z"/>
<path fill="#000000" opacity="1.000000" stroke="none" 
	d="
M426.153931,293.862488 
	C423.831635,294.804779 422.440552,293.936768 422.246979,291.980530 
	C421.943176,288.909698 423.765106,286.689972 425.977509,284.806152 
	C427.068054,283.877594 428.346313,283.463043 429.629303,284.293396 
	C431.051727,285.214050 430.828400,286.430450 430.010834,287.723907 
	C428.776550,289.676605 427.626190,291.682343 426.153931,293.862488 
z"/>
<path fill="#000000" opacity="1.000000" stroke="none" 
	d="
M581.583130,288.424622 
	C582.690857,290.283203 585.327576,291.492249 583.277771,293.675507 
	C582.094238,294.936096 580.469360,294.252167 579.331055,293.102844 
	C577.573608,291.328400 576.476685,288.949402 577.912598,286.859406 
	C579.620789,284.372986 580.432800,286.994476 581.583130,288.424622 
z"/>
<path fill="#000000" opacity="1.000000" stroke="none" 
	d="
M531.599304,300.492432 
	C535.189514,299.974152 535.036682,302.533813 535.454590,304.563080 
	C535.662537,305.573029 535.583679,306.610687 534.480042,307.102570 
	C533.211914,307.667847 532.174255,307.091125 531.473755,306.069672 
	C530.290527,304.344330 529.602905,302.525879 531.599304,300.492432 
z"/>
<path fill="#000000" opacity="1.000000" stroke="none" 
	d="
M586.209290,288.604065 
	C585.818848,286.574249 586.103760,284.965271 588.127075,285.219391 
	C590.170166,285.476013 590.615479,287.637115 591.401367,289.208344 
	C592.012146,290.429535 591.630737,291.633057 590.261353,291.922791 
	C587.983765,292.404633 587.153198,290.619751 586.209290,288.604065 
z"/>
<path fill="#000000" opacity="1.000000" stroke="none" 
	d="
M431.956421,288.543243 
	C433.436859,287.324493 434.596863,287.136658 435.291779,288.891296 
	C435.896362,290.417847 434.913940,292.441101 432.444885,294.766144 
	C429.806061,293.058258 430.806091,290.942383 431.956421,288.543243 
z"/>
</svg>